<svg width="282" height="281" viewBox="0 0 282 281" fill="none" xmlns="http://www.w3.org/2000/svg">
<path fill-rule="evenodd" clip-rule="evenodd" d="M0.208008 0H281.208V281H0.208008V0Z" fill="white"/>
<path fill-rule="evenodd" clip-rule="evenodd" d="M45.1548 215.913V215.174H43.9434V203.07H45.1548V202.33H39.5554V203.107H40.7828V208.471H35.58V203.07H36.8089V202.33H31.208V203.07H32.418V215.174H31.208V215.913H36.7724V215.174H35.58V209.231H40.7828V215.174H39.5554V215.913H45.1548V215.913ZM61.3349 209.231C61.4968 205.037 59.0229 201.984 54.6684 201.984C51.5779 201.984 48.0208 203.647 47.8211 209.156C47.7132 211.83 49.5544 216.257 54.6684 216.257C59.8349 216.259 61.2271 211.706 61.3349 209.231ZM58.0111 209.266C58.0111 213.062 57.0898 215.572 54.6699 215.572C52.1041 215.572 51.2193 212.321 51.2193 209.266C51.2193 206.105 51.8869 202.367 54.6699 202.367C57.361 202.366 58.0111 206.267 58.0111 209.266ZM75.9684 207.494V202.33H63.9546V207.494H64.3176C64.3176 203.449 66.9723 203.07 67.895 203.07H68.2012V215.174H66.9723V215.915H72.5731V215.174H71.3632V203.07H71.7247C72.4842 203.07 75.6097 203.449 75.6097 207.494H75.9684ZM90.9356 215.913V211.127H90.5026C90.5026 213.781 88.3524 215.173 86.8538 215.173H82.9512V209.285H84.5592C85.9499 209.356 86.8538 209.9 86.8538 212.209H87.2692V205.888H86.8538C86.8538 207.223 85.9135 208.651 84.5592 208.651H82.9512V203.07H85.9499C89.1308 203.07 89.7446 203.865 90.2869 207.261H90.6295V202.33H78.5793V203.07H79.7907V215.174H78.5793V215.915H90.9356V215.913V215.913ZM104.441 215.913V210.512H104.043C103.664 212.591 102.977 215.173 99.455 215.173H97.9199V203.069H99.1474V202.328H93.5465V203.069H94.758V215.173H93.5465V215.913H104.441ZM118.695 211.56C118.695 208.85 116.78 207.025 113.8 206.916C110.98 206.808 108.832 206.808 108.832 204.803C108.832 202.945 110.709 202.599 112.173 202.599C116.002 202.599 117.124 206.139 117.285 206.773H117.809V202.328H117.285C117.266 202.744 117.285 203.319 116.779 203.319C116.112 203.319 114.846 201.984 111.992 201.984C109.209 201.984 107.203 203.863 107.203 206.446C107.203 208.741 109.1 210.712 111.865 210.745C114.502 210.782 116.887 210.928 116.887 213.06C116.887 214.993 114.81 215.498 112.912 215.534C109.625 215.571 108.161 213.365 107.547 211.018H107.041V215.912H107.547C107.547 215.912 107.655 214.918 108.251 214.918C109.353 214.918 109.823 216.256 112.985 216.256C116.726 216.259 118.695 214.072 118.695 211.56V211.56ZM139.367 212.247H138.88C138.88 212.896 138.843 214.018 137.976 214.018C137.091 214.018 136.17 212.662 136.17 212.662C136.406 212.247 137.091 210.929 137.091 208.471C137.091 208.073 137.02 207.694 136.947 207.315L136.206 207.461C136.297 209.394 136.406 210.929 135.629 212.21L131.274 207.804C131.925 207.391 133.659 206.54 133.659 204.751C133.659 203.523 132.936 201.987 130.643 201.987C128.529 201.987 126.633 203.487 126.633 205.529C126.633 206.847 127.175 207.497 128.187 208.78C127.446 209.121 124.936 210.352 124.936 212.792C124.936 214.219 125.984 216.26 129.452 216.26C132.922 216.26 134.005 215.176 134.205 215.03C134.511 215.304 135.055 215.845 136.336 215.845C138.956 215.845 139.262 214.053 139.335 213.442C139.402 212.95 139.367 212.247 139.367 212.247V212.247ZM132.304 204.749C132.304 205.69 131.996 206.446 130.767 207.295C130.767 207.295 128.907 205.652 128.907 204.226C128.907 203.378 129.575 202.475 130.642 202.475C131.688 202.475 132.304 203.628 132.304 204.749V204.749ZM133.729 214.559C133.187 215.066 131.616 215.407 131.11 215.407C129.267 215.407 127.876 213.747 127.876 211.778C127.876 211.054 128.182 209.844 128.834 209.465L133.729 214.559V214.559ZM159.831 212.68H159.381C159.381 213.565 159.11 214.957 158.425 214.957C157.576 214.957 157.755 214.109 157.61 212.209C157.448 209.664 155.751 209.264 154.902 209.12C155.48 208.961 157.992 208.687 157.992 205.834C157.992 203.901 157.177 202.33 153.744 202.33H145.635V203.07H146.845V215.174H145.635V215.915H151.233V215.174H150.006V209.429H152.118C154.214 209.429 154.214 210.352 154.214 212.897C154.214 215.574 155.678 216.26 157.07 216.26C159.219 216.259 159.831 214.867 159.831 212.68V212.68ZM154.828 206.034C154.828 207.659 154.088 208.687 152.118 208.687H150.006V203.069H152.318C154.159 203.07 154.828 204.405 154.828 206.034V206.034ZM174.809 215.913V211.127H174.376C174.376 213.781 172.226 215.173 170.725 215.173H166.824V209.285H168.431C169.823 209.356 170.725 209.9 170.725 212.209H171.141V205.888H170.725C170.725 207.223 169.785 208.651 168.431 208.651H166.824V203.07H169.823C173.004 203.07 173.616 203.865 174.16 207.261H174.501V202.33H162.451V203.07H163.661V215.174H162.451V215.915H174.809V215.913V215.913ZM189.073 211.56C189.073 208.85 187.158 207.025 184.177 206.916C181.36 206.808 179.208 206.808 179.208 204.803C179.208 202.945 181.088 202.599 182.551 202.599C186.381 202.599 187.502 206.139 187.665 206.773H188.188V202.328H187.665C187.645 202.744 187.665 203.319 187.158 203.319C186.489 203.319 185.225 201.984 182.372 201.984C179.59 201.984 177.583 203.863 177.583 206.446C177.583 208.741 179.48 210.712 182.244 210.745C184.884 210.782 187.266 210.928 187.266 213.06C187.266 214.993 185.19 215.498 183.29 215.534C180.004 215.571 178.541 213.365 177.926 211.018H177.418V215.912H177.926C177.926 215.912 178.033 214.918 178.628 214.918C179.73 214.918 180.2 216.256 183.363 216.256C187.102 216.259 189.073 214.072 189.073 211.56ZM205.181 209.231C205.342 205.037 202.869 201.984 198.516 201.984C195.426 201.984 191.866 203.647 191.668 209.156C191.56 211.83 193.402 216.257 198.516 216.257C203.679 216.259 205.071 211.706 205.181 209.231ZM201.857 209.266C201.857 213.062 200.934 215.572 198.514 215.572C195.948 215.572 195.063 212.321 195.063 209.266C195.063 206.105 195.733 202.367 198.514 202.367C201.205 202.366 201.857 206.267 201.857 209.266ZM221.999 212.68H221.549C221.549 213.565 221.278 214.957 220.592 214.957C219.741 214.957 219.923 214.109 219.778 212.209C219.616 209.664 217.919 209.264 217.067 209.12C217.645 208.961 220.157 208.687 220.157 205.834C220.157 203.901 219.345 202.33 215.911 202.33H207.803V203.07H209.013V215.174H207.803V215.915H213.401V215.174H212.172V209.429H214.285C216.381 209.429 216.381 210.352 216.381 212.897C216.381 215.574 217.845 216.26 219.237 216.26C221.387 216.259 221.999 214.867 221.999 212.68V212.68ZM216.996 206.034C216.996 207.659 216.256 208.687 214.286 208.687H212.172V203.069H214.484C216.327 203.07 216.996 204.405 216.996 206.034V206.034ZM236.634 207.494V202.33H224.619V207.494H224.98C224.98 203.449 227.637 203.07 228.556 203.07H228.864V215.174H227.637V215.915H233.237V215.174H232.027V203.07H232.389C233.147 203.07 236.273 203.449 236.273 207.494H236.634V207.494ZM250.896 211.56C250.896 208.85 248.98 207.025 245.999 206.916C243.183 206.808 241.034 206.808 241.034 204.803C241.034 202.945 242.91 202.599 244.374 202.599C248.206 202.599 249.324 206.139 249.488 206.773H250.011V202.328H249.488C249.47 202.744 249.488 203.319 248.98 203.319C248.314 203.319 247.047 201.984 244.194 201.984C241.413 201.984 239.408 203.863 239.408 206.446C239.408 208.741 241.305 210.712 244.069 210.745C246.706 210.782 249.088 210.928 249.088 213.06C249.088 214.993 247.012 215.498 245.116 215.534C241.827 215.571 240.363 213.365 239.748 211.018H239.241V215.912H239.748C239.748 215.912 239.856 214.918 240.454 214.918C241.556 214.918 242.025 216.256 245.186 216.256C248.925 216.259 250.896 214.072 250.896 211.56V211.56Z" fill="#6B7379"/>
<path fill-rule="evenodd" clip-rule="evenodd" d="M131.575 134.51C128.955 134.51 126.83 135.572 125.413 135.927C124.634 136.14 122.368 136.777 120.526 135.927C120.171 135.785 119.039 135.714 120.383 137.202C120.739 137.627 121.446 138.052 122.296 138.476C126.83 140.672 130.867 139.752 135.753 137.557C136.957 136.989 138.941 137.061 138.941 136.422C138.871 135.785 137.879 135.36 137.17 134.368C134.479 130.543 131.149 127.356 127.113 125.868C124.987 125.018 123.996 125.655 124.633 126.222C126.191 127.711 126.97 130.473 129.025 132.81C129.664 133.518 130.585 134.228 131.575 134.51V134.51ZM138.517 132.456C138.517 130.969 140.784 128.702 141.208 127.356C141.704 128.702 143.899 130.969 143.899 132.456C143.899 133.169 143.616 133.854 143.111 134.359C142.606 134.863 141.922 135.147 141.208 135.147C140.494 135.147 139.81 134.863 139.305 134.359C138.801 133.854 138.517 133.169 138.517 132.456ZM138.517 139.823C138.517 141.31 140.784 143.649 141.208 144.994C141.704 143.647 143.899 141.31 143.899 139.823C143.899 139.11 143.616 138.425 143.111 137.921C142.606 137.416 141.922 137.132 141.208 137.132C140.494 137.132 139.81 137.416 139.305 137.921C138.801 138.425 138.517 139.11 138.517 139.823Z" fill="#6B7379"/>
<path fill-rule="evenodd" clip-rule="evenodd" d="M118.189 128.915C115.781 128.065 113.514 128.276 112.027 128.136C111.249 127.993 109.052 127.924 107.636 126.578C107.353 126.295 106.361 125.798 107.069 127.712C107.212 128.138 107.708 128.703 108.345 129.412C111.816 132.953 115.782 133.449 120.882 133.024C122.227 132.954 124.423 133.45 124.564 132.812C124.707 132.246 123.643 131.679 123.289 130.616C122.085 126.224 120.172 122.187 116.985 119.496C115.355 118.079 114.153 118.363 114.577 119.07C115.498 120.911 115.285 123.674 116.418 126.508C116.812 127.438 117.418 128.262 118.189 128.915V128.915Z" fill="#6B7379"/>
<path fill-rule="evenodd" clip-rule="evenodd" d="M107.211 118.929C105.298 117.44 103.103 117.016 101.827 116.521C101.048 116.166 99.1359 115.458 98.2145 113.83C98.0017 113.475 97.2232 112.767 97.2947 114.679C97.3646 115.105 97.6489 115.812 98.0731 116.733C100.199 120.842 103.74 122.471 108.555 123.463C109.759 123.817 111.671 124.808 111.954 124.313C112.309 123.888 111.387 123.037 111.46 121.906C111.53 117.585 110.893 113.335 108.698 110.006C107.705 108.164 106.502 108.093 106.714 108.943C106.996 110.856 106.076 113.335 106.289 116.239C106.381 117.196 106.697 118.117 107.211 118.929V118.929Z" fill="#6B7379"/>
<path fill-rule="evenodd" clip-rule="evenodd" d="M100.553 106.888C99.2074 104.975 97.3647 103.914 96.3734 103.062C95.7349 102.567 94.178 101.292 93.8937 99.5213C93.7523 99.167 93.2566 98.3171 92.761 100.088C92.761 100.513 92.761 101.221 92.9024 102.142C93.6109 106.606 96.3734 109.084 100.41 111.421C101.473 112.13 102.888 113.547 103.314 113.264C103.74 112.908 103.173 111.918 103.527 110.926C104.944 106.959 105.581 102.851 104.59 99.1685C104.164 97.1859 103.103 96.8302 103.103 97.6101C102.748 99.4513 101.19 101.435 100.553 104.198C100.342 104.975 100.342 106.038 100.553 106.888V106.888Z" fill="#6B7379"/>
<path fill-rule="evenodd" clip-rule="evenodd" d="M98.2859 93.2177C97.7903 91.1636 96.4447 89.6052 95.8776 88.4725C95.5948 87.834 94.602 86.2056 94.9577 84.5059C94.9577 84.223 94.8163 83.2303 93.825 84.6473C93.6122 85.0015 93.3994 85.71 93.1865 86.4899C92.3366 90.5965 93.965 93.7148 96.6575 97.1844C97.366 98.1042 98.0745 99.9469 98.4987 99.7341C98.9944 99.5926 98.9244 98.5299 99.5615 97.8214C102.04 94.7761 104.024 91.3779 104.307 87.8355C104.589 85.9928 103.811 85.2143 103.598 85.9228C102.678 87.4798 100.554 88.6854 99.2072 90.8794C98.7101 91.4464 98.2859 92.4392 98.2859 93.2177V93.2177Z" fill="#6B7379"/>
<path fill-rule="evenodd" clip-rule="evenodd" d="M100.057 80.3978C100.057 78.3438 99.2773 76.5726 98.9945 75.4399C98.8531 74.7314 98.4289 73.0316 99.1374 71.6146C99.2073 71.2603 99.2788 70.339 98.0046 71.4018C97.7918 71.6846 97.4376 72.2517 97.0119 72.9601C95.2421 76.5011 95.9506 79.8308 97.5804 83.656C98.0061 84.6473 98.2175 86.4885 98.6432 86.4171C99.1388 86.4171 99.3517 85.4258 100.06 84.8587C103.105 82.6633 105.727 80.1136 106.931 76.9268C107.638 75.2985 107.071 74.3771 106.718 74.9442C105.514 76.1484 103.318 76.714 101.477 78.4852C100.836 78.8395 100.269 79.6894 100.057 80.3978V80.3978Z" fill="#6B7379"/>
<path fill-rule="evenodd" clip-rule="evenodd" d="M105.157 68.9948C105.795 67.0107 105.511 65.0995 105.582 63.8939C105.582 63.1869 105.652 61.4157 106.715 60.2115C106.928 60.0001 107.211 59.1488 105.795 59.7858C105.441 59.9273 104.945 60.3529 104.378 60.99C101.616 63.8939 101.403 67.2935 101.899 71.4016C102.04 72.5343 101.757 74.3056 102.181 74.377C102.677 74.5184 103.103 73.5971 104.023 73.2443C107.494 72.0401 110.75 70.2674 112.734 67.5778C113.869 66.1608 113.656 65.1695 113.089 65.5952C111.602 66.3736 109.335 66.3736 107.068 67.5078C106.361 67.7192 105.582 68.3563 105.157 68.9948V68.9948Z" fill="#6B7379"/>
<path fill-rule="evenodd" clip-rule="evenodd" d="M113.018 59.9272C114.153 58.4402 114.577 56.8104 114.931 55.8191C115.214 55.3235 115.781 53.8365 117.057 53.2694C117.339 53.0566 117.835 52.4195 116.418 52.5609C116.135 52.5609 115.498 52.7738 114.861 53.058C111.744 54.6164 110.469 57.3075 109.549 60.8485C109.336 61.7699 108.556 63.1868 108.91 63.3997C109.265 63.6125 109.903 63.0454 110.68 63.0454C114.008 63.1169 117.268 62.6912 119.676 61.0628C121.022 60.2829 121.163 59.433 120.596 59.5744C119.108 59.7872 117.268 59.0788 115.071 59.2202C114.364 59.2202 113.584 59.503 113.018 59.9272V59.9272Z" fill="#6B7379"/>
<path fill-rule="evenodd" clip-rule="evenodd" d="M121.943 53.908C123.147 52.9153 123.784 51.5697 124.35 50.7912C124.634 50.437 125.413 49.2329 126.617 48.9486C126.9 48.8786 127.395 48.3815 126.191 48.2401C125.908 48.1687 125.411 48.2401 124.774 48.3815C121.799 49.09 120.169 51.214 118.755 54.1894C118.401 54.8964 117.408 56.0306 117.762 56.2434C117.975 56.4548 118.682 56.0306 119.391 56.2434C122.155 56.9505 125.059 57.1633 127.465 56.172C128.739 55.7478 129.024 55.0393 128.528 55.1093C127.181 54.9664 125.764 54.0465 123.781 53.7637C123.168 53.6328 122.529 53.6829 121.943 53.908V53.908Z" fill="#6B7379"/>
<path fill-rule="evenodd" clip-rule="evenodd" d="M135.826 49.1614C134.906 51.1455 132.567 51.7825 131.859 51.9939C131.29 52.2068 128.884 52.8438 127.114 51.6411C128.034 49.6585 130.372 49.02 131.009 48.8072C131.646 48.6658 133.983 47.9573 135.826 49.1614ZM155.799 69.3476C157.356 69.9147 158.703 69.2062 159.27 67.9306C159.551 67.365 159.694 67.0093 159.694 66.4436H161.747V83.0888H160.26C157.709 76.1468 151.337 69.419 143.896 67.7892C136.531 66.6565 127.961 66.7964 123.711 73.2428C122.507 75.0126 123.144 78.625 125.411 79.8991C132.99 84.5029 141.278 82.3789 151.337 83.7944C156.436 84.5029 162.031 87.4068 164.298 93.0733C166.493 98.5269 166.069 104.122 163.871 107.804C158.703 116.658 149.068 117.508 142.906 117.508C136.461 117.508 130.016 114.532 124.917 112.691C123.36 112.124 122.013 112.832 121.446 114.108C121.163 114.675 121.02 115.099 121.02 115.596H118.966V98.0298C119.533 98.0298 120.169 98.0298 121.02 98.1013C123.003 106.176 129.378 112.125 135.753 113.967C143.119 116.163 150.485 115.809 156.223 111.771C158.49 110.213 159.341 106.813 158.49 103.839C157.215 99.3768 150.344 98.1727 145.387 98.1013C134.761 97.817 121.873 97.9599 118.048 86.2727C116.561 80.6776 117.481 74.5155 121.517 70.336C128.175 63.8211 139.367 63.6082 147.867 66.2279C150.911 66.8693 152.967 68.4991 155.799 69.3476V69.3476ZM150.84 134.51C153.462 134.51 155.586 135.573 157.072 135.927C157.852 136.14 160.047 136.777 161.89 135.927C162.243 135.785 163.377 135.714 162.033 137.202C161.677 137.627 160.97 138.052 160.12 138.477C155.588 140.672 151.55 139.752 146.734 137.557C145.459 136.99 143.475 137.061 143.545 136.422C143.545 135.785 144.536 135.36 145.245 134.368C147.936 130.543 151.264 127.356 155.303 125.868C157.427 125.018 158.419 125.655 157.78 126.222C156.223 127.711 155.513 130.473 153.389 132.81C152.754 133.519 151.831 134.228 150.84 134.51V134.51Z" fill="#6B7379"/>
<path fill-rule="evenodd" clip-rule="evenodd" d="M164.228 128.915C166.636 128.065 168.903 128.276 170.39 128.136C171.17 127.993 173.437 127.924 174.781 126.578C175.065 126.295 176.057 125.798 175.351 127.712C175.208 128.138 174.713 128.703 174.076 129.412C170.605 132.953 166.638 133.449 161.536 133.024C160.192 132.954 158.067 133.45 157.855 132.812C157.712 132.246 158.777 131.679 159.13 130.616C160.334 126.224 162.246 122.187 165.434 119.496C167.062 118.079 168.266 118.363 167.839 119.07C166.919 120.911 167.134 123.674 165.999 126.508C165.604 127.437 164.997 128.261 164.228 128.915V128.915Z" fill="#6B7379"/>
<path fill-rule="evenodd" clip-rule="evenodd" d="M175.207 118.929C177.118 117.44 179.315 117.016 180.588 116.521C181.367 116.166 183.35 115.458 184.201 113.83C184.413 113.475 185.193 112.767 185.121 114.679C185.053 115.105 184.768 115.812 184.344 116.733C182.217 120.842 178.678 122.471 173.861 123.463C172.657 123.817 170.743 124.808 170.462 124.313C170.177 123.888 171.029 123.037 170.957 121.906C170.886 117.585 171.524 113.335 173.72 110.006C174.783 108.164 175.915 108.093 175.704 108.943C175.42 110.856 176.342 113.335 176.128 116.239C176.055 117.158 175.702 118.149 175.207 118.929Z" fill="#6B7379"/>
<path fill-rule="evenodd" clip-rule="evenodd" d="M181.863 106.888C183.21 104.975 185.053 103.914 186.114 103.062C186.678 102.567 188.238 101.292 188.591 99.5213C188.662 99.167 189.158 98.3171 189.654 100.088C189.725 100.513 189.654 101.221 189.582 102.142C188.877 106.606 186.043 109.084 182.006 111.421C180.943 112.13 179.526 113.547 179.173 113.264C178.746 112.908 179.242 111.918 178.889 110.926C177.545 106.959 176.837 102.851 177.826 99.1685C178.322 97.1859 179.315 96.8302 179.315 97.6101C179.668 99.4513 181.296 101.435 181.863 104.198C182.149 104.975 182.149 106.038 181.863 106.888V106.888Z" fill="#6B7379"/>
<path fill-rule="evenodd" clip-rule="evenodd" d="M184.13 93.2177C184.697 91.1636 185.973 89.6052 186.538 88.4725C186.82 87.834 187.814 86.2056 187.458 84.5059C187.458 84.223 187.671 83.2303 188.662 84.6473C188.875 85.0015 189.015 85.71 189.229 86.4899C190.081 90.5965 188.449 93.7148 185.83 97.1844C185.053 98.1042 184.343 99.9469 183.917 99.7341C183.422 99.5926 183.564 98.5299 182.926 97.8214C180.378 94.7761 178.464 91.3779 178.108 87.8355C177.826 85.9928 178.606 85.2143 178.816 85.9228C179.739 87.4798 181.863 88.6854 183.21 90.8794C183.774 91.4464 184.13 92.4392 184.13 93.2177Z" fill="#6B7379"/>
<path fill-rule="evenodd" clip-rule="evenodd" d="M182.43 80.3978C182.359 78.3438 183.139 76.5726 183.422 75.4399C183.564 74.7314 184.06 73.0316 183.35 71.6146C183.21 71.2603 183.139 70.339 184.413 71.4018C184.697 71.6846 184.983 72.2517 185.407 72.9601C187.25 76.5011 186.47 79.8308 184.911 83.656C184.484 84.6473 184.203 86.4885 183.776 86.4171C183.283 86.4171 183.14 85.4258 182.36 84.8587C179.385 82.6633 176.694 80.1136 175.49 76.9268C174.851 75.2985 175.35 74.3771 175.774 74.9442C176.907 76.1484 179.174 76.714 181.013 78.4852C181.579 78.8395 182.217 79.6894 182.43 80.3978V80.3978Z" fill="#6B7379"/>
<path fill-rule="evenodd" clip-rule="evenodd" d="M177.259 68.9948C176.621 67.0107 176.907 65.0995 176.907 63.8939C176.835 63.1869 176.764 61.4157 175.703 60.2115C175.56 60.0001 175.207 59.1488 176.694 59.7858C176.975 59.9273 177.474 60.3529 178.041 60.99C180.803 63.8939 181.013 67.2935 180.518 71.4016C180.378 72.5343 180.661 74.3056 180.236 74.377C179.741 74.5184 179.316 73.5971 178.465 73.2443C174.923 72.0401 171.666 70.2674 169.682 67.5778C168.549 66.1608 168.833 65.1695 169.329 65.5952C170.816 66.3736 173.081 66.3736 175.351 67.5078C176.055 67.7192 176.835 68.3563 177.259 68.9948V68.9948Z" fill="#6B7379"/>
<path fill-rule="evenodd" clip-rule="evenodd" d="M169.54 59.8573C168.476 58.3689 168.052 56.7405 167.698 55.7507C167.413 55.255 166.775 53.7666 165.574 53.1995C165.289 52.9867 164.794 52.3496 166.209 52.4925C166.494 52.4925 167.061 52.7053 167.769 52.9881C170.885 54.5465 172.16 57.2376 173.011 60.7801C173.223 61.7714 174.074 63.1184 173.717 63.3298C173.364 63.6126 172.726 62.9755 171.874 62.9755C168.618 63.1184 165.359 62.6213 162.951 61.0629C161.533 60.213 161.464 59.3631 161.96 59.5045C163.517 59.7173 165.359 59.0088 167.555 59.1503C168.193 59.1488 169.045 59.4331 169.54 59.8573Z" fill="#6B7379"/>
<path fill-rule="evenodd" clip-rule="evenodd" d="M160.543 53.908C159.342 52.9153 158.703 51.5697 158.138 50.7198C157.853 50.367 157.073 49.2328 155.871 48.8786C155.586 48.8072 155.091 48.383 156.295 48.2401C156.576 48.1687 157.143 48.2401 157.71 48.3815C160.686 49.09 162.314 51.214 163.733 54.1194C164.085 54.8979 165.077 55.9606 164.724 56.1734C164.511 56.4563 163.804 56.0306 163.096 56.2449C160.333 56.9519 157.429 57.0948 155.092 56.1734C153.745 55.7492 153.464 54.9693 153.959 55.0407C155.306 54.8979 156.722 53.978 158.706 53.6952C159.27 53.5538 160.049 53.6952 160.543 53.908Z" fill="#6B7379"/>
<path fill-rule="evenodd" clip-rule="evenodd" d="M146.592 49.1614C147.511 51.1455 149.848 51.7825 150.558 51.9939C151.125 52.2068 153.534 52.8438 155.305 51.6411C154.382 49.6585 152.045 49.02 151.407 48.8072C150.771 48.6658 148.434 47.9573 146.592 49.1614Z" fill="#6B7379"/>
<path fill-rule="evenodd" clip-rule="evenodd" d="M45.1344 177.756C45.1344 169.726 39.4592 164.316 30.6235 163.997C22.2717 163.675 15.8997 163.675 15.8997 157.73C15.8997 152.215 21.4685 151.199 25.804 151.199C37.1559 151.199 40.4753 161.694 40.9578 163.567H42.5104V150.396H40.9578C40.9039 151.629 40.9578 153.34 39.4592 153.34C37.4795 153.34 33.7301 149.38 25.2704 149.38C17.0251 149.38 11.0817 154.948 11.0817 162.605C11.0817 169.404 16.7029 175.241 24.8958 175.346C32.7125 175.454 39.7799 175.881 39.7799 182.199C39.7799 187.931 33.6222 189.428 28.0009 189.536C18.2555 189.641 13.9185 183.11 12.0977 176.148H10.5991V190.66H12.0977C12.0977 190.66 12.4185 187.714 14.1868 187.714C17.4522 187.714 18.8444 191.678 28.2152 191.678C39.2989 191.678 45.1344 185.198 45.1344 177.756V177.756ZM84.116 190.662V188.734H80.6888V171.331C80.6888 166.192 76.5661 161.266 69.4447 161.266C63.7156 161.266 61.1994 163.675 59.0579 165.708V150.396H46.3677V152.323H49.6332V188.734H46.0995V190.662H62.3773V188.734H59.0579V172.244C59.0579 168.226 61.3058 163.998 65.911 163.998C68.9097 163.998 70.8369 166.888 70.8369 169.51V188.736H67.3032V190.663H84.116V190.662ZM114.17 176.149V174.062C114.17 167.531 109.512 160.782 99.6606 160.782C90.7184 160.782 84.0796 166.192 84.0796 176.471C84.0796 186.645 91.4153 191.679 100.25 191.679C105.925 191.679 113.046 189.161 113.956 180.381H112.671C112.671 182.631 109.833 189.161 102.872 189.161C94.5204 189.161 93.4489 182.897 93.4489 176.149H114.17V176.149ZM105.39 174.276H93.4504C93.4504 174.276 93.1296 162.497 99.5542 162.497C106.514 162.497 105.39 174.276 105.39 174.276ZM143.115 167.69C143.115 164.691 141.186 161.159 137.278 161.159C132.406 161.159 129.407 164.905 128.604 165.977V161.803H116.021V163.676H118.858V188.734H115.325V190.662H131.709V188.734H128.282V176.149C128.282 169.726 131.923 162.978 137.062 162.978C138.081 162.978 138.562 163.3 139.151 163.997C137.276 163.408 134.225 165.281 134.225 168.439C134.225 170.956 136.633 172.723 138.776 172.723C141.186 172.723 143.115 170.207 143.115 167.69V167.69ZM178.934 183.593V181.4H177.434C177.434 182.897 177.434 188.25 175.134 188.25C173.688 188.25 172.884 187.342 172.884 185.95V176.579C172.884 171.223 174.223 160.782 159.124 160.782C150.235 160.782 145.739 164.316 145.739 168.439C145.739 169.726 146.328 172.938 150.235 172.938C152.057 172.938 154.465 170.956 154.465 168.493C154.465 165.386 151.573 164.102 151.573 164.102C152.965 163.406 154.303 162.869 156.285 162.869C159.926 162.869 163.246 165.013 163.246 168.706C163.246 178.56 144.023 170.741 144.023 183.537C144.023 186.911 145.95 191.678 153.448 191.678C160.836 191.678 162.228 188.733 163.622 186.644C165.333 189.536 166.674 191.57 170.689 191.57C176.739 191.57 178.934 188.734 178.934 183.593V183.593ZM162.923 183.002C162.923 186.217 159.39 188.947 157.785 188.947C155.159 188.947 153.448 186.109 153.448 183.324C153.448 176.684 159.123 177.168 162.923 173.954V183.002V183.002ZM198.982 183.324V181.613H197.536C197.536 183.701 197.536 188.144 194.056 188.144C192.502 188.144 190.791 187.02 190.791 184.343V163.675H196.144V161.801H190.791V151.788H189.398C188.487 156.445 185.381 161.801 178.85 161.801V163.675H182.384V184.343C182.384 188.144 185.382 191.678 190.629 191.678C197.534 191.678 198.982 186.055 198.982 183.324V183.324ZM232.389 176.471C232.389 168.439 228.052 160.782 215.952 160.782C205.673 160.782 200.371 167.636 200.371 176.471C200.371 186.323 206.689 191.679 216.487 191.679C224.894 191.678 232.389 186.912 232.389 176.471V176.471ZM223.288 175.99C223.288 181.613 222.218 189.643 216.164 189.643C209.795 189.643 209.206 179.683 209.206 176.684C209.206 171.812 210.222 162.605 216.648 162.605C222.11 162.605 223.288 169.939 223.288 175.99ZM270.815 190.662V188.734H267.604V171.223C267.604 165.816 263.803 160.944 256.252 160.944C250.418 160.944 247.471 163.675 245.76 165.816V161.801H233.07V163.675H236.335V188.733H232.802V190.66H249.184V188.733H245.759V172.831C245.759 168.813 248.167 164.102 252.504 164.102C254.912 164.102 257.643 165.602 257.643 168.923V188.734H254.109V190.662H270.815Z" fill="#6B7379"/>
</svg>
