<svg width="12" height="11" viewBox="0 0 12 11" fill="none" xmlns="http://www.w3.org/2000/svg">
<path d="M6.572 3.74504C6.5545 3.71479 6.743 3.69829 6.7765 3.69829C6.8135 3.70242 6.6785 3.90546 6.572 3.74504ZM5.496 2.33704L5.55 2.32283C5.582 2.34804 5.514 2.36638 5.5245 2.38517C5.5675 2.45621 5.535 2.49883 5.5285 2.53733C5.5215 2.57629 5.4765 2.55933 5.454 2.57996C5.4275 2.61021 5.583 2.61433 5.585 2.61892C5.5905 2.63404 5.3975 2.65971 5.433 2.69729C5.481 2.75963 5.845 2.60792 5.787 2.61663C5.8995 2.56483 5.8015 2.55933 5.7385 2.52954C5.717 2.431 5.699 2.27883 5.632 2.21788L5.676 2.17113C5.573 2.03408 5.496 2.33704 5.496 2.33704V2.33704ZM12 5.5C12 8.53738 9.3135 11 6 11C2.686 11 0 8.53738 0 5.5C0 2.46263 2.686 0 6 0C9.3135 0 12 2.46263 12 5.5ZM7.845 3.03829C7.842 2.97138 7.75 2.90813 7.654 3.02408C7.5865 3.10383 7.5985 3.22529 7.562 3.27938C7.51 3.35958 7.8455 3.43475 7.8455 3.35913C7.858 3.23217 8.2115 3.33025 8.2805 3.34767C8.4045 3.37929 8.602 3.24408 8.386 3.17304C8.2085 3.11346 8.115 3.04975 8.099 2.93333C8.099 2.93333 8.193 2.85267 8.152 2.85725C8.043 2.86963 7.845 3.2175 7.845 3.03829V3.03829ZM10.993 5.5C10.993 5.02563 10.9045 4.54667 10.8145 4.29367C10.7855 4.21392 10.72 4.15067 10.635 4.12042C10.507 4.07458 9.9665 4.39404 9.885 4.23683C9.8315 4.13188 9.723 4.30375 9.599 4.2405C9.539 4.21025 9.372 4.00446 9.2965 4.02967C9.142 4.08054 9.5335 4.4715 9.6405 4.52283C9.741 4.45317 10.0665 4.30971 10.1365 4.50542C10.2705 4.87392 9.768 5.27771 9.511 5.49038C9.127 5.80846 9.199 5.28458 8.9375 5.09988C8.8 5.00317 8.8015 4.79738 8.6625 4.72633C8.6005 4.69425 8.316 4.39404 8.3185 4.35371L8.31 4.42979C8.263 4.46233 8.163 4.30696 8.1525 4.28267C8.1525 4.41788 8.3925 4.63329 8.472 4.74146C8.6075 4.92708 8.68 5.1975 8.846 5.34921C8.935 5.43079 9.275 5.76813 9.3635 5.76079C9.46 5.753 9.765 5.55087 9.819 5.56233C10.141 5.632 9.061 7.03129 8.9585 7.20454C8.874 7.34983 9.0275 7.70917 9.015 7.88104C9.0005 8.0795 8.83 8.14367 8.6685 8.25183C8.4955 8.36779 8.536 8.59329 8.3905 8.67579C8.132 8.82154 7.946 9.29592 7.579 9.29363C7.471 9.29317 7.009 9.45863 6.9485 9.29683C6.9015 9.1795 6.8385 9.09058 6.772 8.97462C6.707 8.86096 6.7645 8.74317 6.6855 8.64279C6.631 8.57313 6.448 8.415 6.4315 8.3325C6.4305 8.26146 6.49 8.04558 6.5715 8.008C6.686 7.95438 6.5935 7.79808 6.5795 7.70733C6.5555 7.54508 6.446 7.41125 6.3145 7.31729C6.12 7.18025 6.2205 7.07117 6.266 6.87546C6.266 6.78196 6.204 6.65913 6.067 6.69579C5.785 6.77096 5.8705 6.49413 5.665 6.5065C5.517 6.51613 5.396 6.60229 5.2585 6.64033C5.0855 6.688 4.9085 6.60275 4.7375 6.58304C4.034 6.50146 3.8045 5.76446 3.988 5.23279C4.0065 5.14571 3.931 4.98437 3.964 4.917C4.043 4.75567 4.204 4.57462 4.345 4.45225C4.424 4.3835 4.5255 4.40092 4.6185 4.34729C4.762 4.26433 4.764 4.09383 4.9045 3.98933C5.1045 3.84038 5.3775 3.84358 5.6385 3.8115C5.7775 3.79454 6.3065 3.68958 6.39 3.784C6.39 3.80142 6.4855 4.06083 6.3805 4.04617C6.597 4.05671 6.9055 4.38946 7.111 4.31154C7.2165 4.27121 7.178 3.97421 7.3945 4.11767C7.5255 4.20383 8.1125 4.24233 8.2345 4.14929C8.3095 4.09246 8.3515 3.72304 8.2605 3.68133C8.3185 3.73404 7.955 3.73817 7.921 3.72625C7.861 3.70608 7.805 3.7785 7.7085 3.73771C7.7665 3.76292 7.3855 3.57546 7.5995 3.432C7.51 3.49204 7.4265 3.41504 7.33 3.48104C7.2635 3.53054 7.361 3.56354 7.266 3.60663C7.115 3.67675 7.001 3.366 6.944 3.33071C6.886 3.29588 6.437 3.00713 6.559 3.1955L6.9535 3.55529C6.934 3.56675 6.85 3.42421 6.85 3.52825C6.8765 3.46638 6.86 3.79363 6.798 3.68729C6.7705 3.6465 6.843 3.62358 6.801 3.56446C6.801 3.5255 6.687 3.48746 6.665 3.46088C6.6025 3.38983 6.4365 3.23308 6.3465 3.1955C6.3215 3.18496 5.9645 3.23537 5.9345 3.24592C5.8995 3.29083 5.8695 3.33804 5.845 3.38846C5.771 3.41367 5.7015 3.44621 5.6355 3.48654L5.557 3.64833C5.523 3.67629 5.1745 3.78171 5.1725 3.78583C5.187 3.75146 4.929 3.70746 4.946 3.63871C4.965 3.56308 5.0525 3.32704 5.03 3.24088C5.006 3.15058 5.567 3.37104 5.603 3.13317C5.6175 3.03004 5.626 2.90996 5.4465 2.89254C5.4805 2.89621 5.794 2.77979 5.846 2.72754C5.919 2.65054 6.0865 2.52496 6.208 2.52496C6.35 2.52496 6.3195 2.33567 6.385 2.24308C6.4505 2.26738 6.35 2.41542 6.4285 2.47546C6.4235 2.42825 6.651 2.50158 6.673 2.49058C6.725 2.46583 7.015 2.4805 6.97 2.35583C6.92 2.22887 6.9955 2.26646 7.0605 2.23988C7.0495 2.244 7.2305 1.95617 7.2615 2.05058C7.24 1.95342 7.051 2.0845 6.985 2.07946C6.8325 2.06846 6.897 1.84113 6.9545 1.77467C6.999 1.72196 6.833 1.65733 6.831 1.75817C6.828 1.90896 6.675 2.04554 6.7105 2.24583C6.7645 2.54788 6.343 2.17296 6.306 2.19358C6.166 2.2715 6.0515 2.0955 6.124 1.99008C6.198 1.88238 6.3765 1.88742 6.45 1.77192C6.502 1.69033 6.5625 1.59546 6.6425 1.53358C6.91 1.32779 6.984 1.49233 7.2505 1.51479C7.511 1.53679 7.3385 1.57163 7.3025 1.66329C7.268 1.75038 7.4455 1.78154 7.507 1.70867C7.542 1.6665 7.6215 1.56063 7.656 1.48225C7.7005 1.3805 8.1065 1.39196 7.823 1.23658C7.636 1.13438 6.821 0.928583 6.275 0.928583C6.157 0.928583 6.0745 1.04913 5.9845 1.11742C5.8065 1.25263 5.3505 1.518 5.097 1.43733C4.8375 1.35529 4.282 1.73983 4.193 1.74258C4.1605 1.74442 4.195 1.452 4.372 1.43046C4.2955 1.441 4.9955 1.10642 4.9765 1.03675C4.9535 0.95425 3.577 1.4135 3.6385 1.50563C3.668 1.54779 3.788 1.54779 3.6305 1.64038C3.5405 1.69033 3.4445 2.0075 3.36 2.0075C3.1075 2.10879 3.0915 1.80813 2.8105 2.19496L2.3635 2.35996C1.6995 3.00667 1.24 3.82571 1.0735 4.7355C1.067 4.77171 1.2405 4.83908 1.263 4.86383C1.319 4.92525 1.319 5.19017 1.3465 5.27679C1.4155 5.49587 1.586 5.61779 1.7165 5.81717C1.7935 5.93588 1.9215 6.23608 1.881 6.36075C1.935 6.27917 2.416 6.73429 2.504 6.82917C2.711 7.05237 2.8705 7.32279 2.5345 7.54371C2.426 7.61521 2.6995 8.06117 2.5585 8.17071L2.378 8.21333C2.2 8.31371 2.2805 8.55983 2.3885 8.66342C3.2975 9.53471 4.5785 10.0783 5.9985 10.0783C8.757 10.0783 10.993 8.02863 10.993 5.5V5.5ZM5.2395 2.58638C5.302 2.56117 5.386 2.56208 5.395 2.48554C5.4025 2.41771 5.417 2.46446 5.435 2.43971C5.4525 2.41542 5.4015 2.37646 5.38 2.37279C5.348 2.36638 5.326 2.40442 5.3055 2.42046L5.2695 2.42917L5.2355 2.46904L5.2395 2.49104L5.196 2.53963C5.1535 2.57813 5.197 2.60333 5.2395 2.58638V2.58638Z" fill="#EA630F"/>
</svg>
