<svg width="82" height="62" viewBox="0 0 82 62" fill="none" xmlns="http://www.w3.org/2000/svg">
<path d="M15.7808 29.088L4.22488 33.4225C4.33751 34.2677 4.4952 34.6167 4.68292 35.4275L17.658 29.6581C17.3101 29.5622 16.1087 29.1838 15.7808 29.088Z" fill="white"/>
<path d="M80.9063 21.5446C80.9063 18.6132 77.7201 15.9644 72.3538 13.9102L71.0348 14.3991C76.6113 16.3428 80.0302 18.8491 80.0302 21.5446C80.0302 27.5524 62.9805 32.6412 42.8046 32.6412C36.7526 32.6412 30.9884 32.1768 25.88 31.3831L5.26355 38.0544C9.6161 51.8195 24.7912 61.9971 42.8046 61.9971C64.1969 61.9971 81.6021 47.6324 81.6021 29.9678C81.6021 27.8939 81.3593 24.1369 80.8862 21.9304C80.8937 21.7928 80.9063 21.6675 80.9063 21.5446Z" fill="white"/>
<path d="M9.8639 26.884C7.5412 25.4491 5.56892 23.2032 5.56892 21.5421C5.56892 15.5245 22.6187 10.4357 42.8021 10.4357C43.583 10.4357 44.3589 10.4505 45.1273 10.4603L47.002 9.63959C45.6229 9.59044 44.2237 9.57324 42.8021 9.57324C21.4273 9.57324 4.68539 14.8291 4.68539 21.5421C4.68539 21.7092 4.69791 21.8002 4.72544 21.8493C4.3425 23.589 4.10972 27.4369 4.03214 29.5624L9.8639 26.884Z" fill="white"/>
<path d="M73.8707 0L0 32.3979L75.5576 3.99783L73.8707 0Z" fill="white"/>
<path d="M82 7.66396L80.3106 3.66614L6.43741 36.0763L82 7.66396Z" fill="white"/>
</svg>
