<svg width="133" height="25" viewBox="0 0 133 25" fill="none" xmlns="http://www.w3.org/2000/svg">
<path d="M17.0306 5.475V4.25C17.0306 3.01667 16.603 2 15.7478 1.2C14.8926 0.4 13.81 0 12.5 0C11.0808 0 9.97089 0.408333 9.17031 1.225C8.36972 2.04167 7.96943 3.13333 7.96943 4.5V4.875C7.96943 4.94167 7.97853 5 7.99672 5.05L8.02402 5.475C6.67758 4.59167 5.46761 4.15 4.3941 4.15C3.55713 4.15 2.75655 4.40833 1.99236 4.925C1.26456 5.40833 0.727802 6.04167 0.382096 6.825C0.127365 7.375 0 7.925 0 8.475C0 10.1583 1.05531 11.4417 3.16594 12.325L3.57533 12.5C1.19178 13.5 0 14.85 0 16.55C0 17.7 0.436681 18.7083 1.31004 19.575C2.18341 20.4417 3.22052 20.875 4.4214 20.875C5.5131 20.875 6.59571 20.5167 7.66921 19.8L8.02402 19.55C7.98763 19.8833 7.96943 20.2833 7.96943 20.75C7.96943 22 8.39702 23.0208 9.25218 23.8125C10.1074 24.6042 11.19 25 12.5 25C13.9374 25 15.0519 24.5875 15.8433 23.7625C16.6348 22.9375 17.0306 21.8583 17.0306 20.525V19.55C18.377 20.4333 19.5779 20.875 20.6332 20.875C21.8159 20.875 22.8393 20.4375 23.7036 19.5625C24.5679 18.6875 25 17.6833 25 16.55C25 14.85 23.9447 13.5583 21.8341 12.675L21.4247 12.5C23.8082 11.5 25 10.1583 25 8.475C25 7.39167 24.5724 6.4 23.7172 5.5C22.8621 4.6 21.8295 4.15 20.6195 4.15C19.4096 4.15 18.3406 4.5 17.4127 5.2L17.0306 5.475ZM14.738 9.7C16.8486 6.88333 18.8046 5.475 20.6059 5.475C21.3519 5.475 22.0297 5.78333 22.6392 6.4C23.2487 7.01667 23.5535 7.70833 23.5535 8.475C23.5535 10.5417 21.1154 11.7667 16.2391 12.15V12.875C18.659 13.0583 20.4831 13.4583 21.7112 14.075C22.9394 14.6917 23.5535 15.5167 23.5535 16.55C23.5535 17.3 23.2578 17.9875 22.6665 18.6125C22.0751 19.2375 21.3883 19.55 20.6059 19.55C18.7682 19.55 16.8122 18.1333 14.738 15.3L14.0284 15.675C15.0655 17.6083 15.5841 19.2417 15.5841 20.575C15.5841 22.6417 14.556 23.675 12.5 23.675C11.5175 23.675 10.7533 23.4 10.2074 22.85C9.67977 22.2667 9.41594 21.5333 9.41594 20.65C9.41594 19.3167 9.9345 17.6583 10.9716 15.675L10.262 15.3C8.18777 18.1333 6.2318 19.55 4.3941 19.55C3.64811 19.55 2.97034 19.2542 2.36081 18.6625C1.75127 18.0708 1.44651 17.3667 1.44651 16.55C1.44651 14.4833 3.87555 13.2583 8.73362 12.875V12.15C3.87555 11.7833 1.44651 10.5583 1.44651 8.475C1.44651 7.74167 1.73763 7.05833 2.31987 6.425C2.90211 5.79167 3.59352 5.475 4.3941 5.475C6.19541 5.475 8.15138 6.88333 10.262 9.7L10.9716 9.35C9.9345 7.4 9.41594 5.73333 9.41594 4.35C9.41594 3.46667 9.67977 2.73333 10.2074 2.15C10.7533 1.6 11.5175 1.325 12.5 1.325C14.556 1.325 15.5841 2.35 15.5841 4.4C15.5841 5.75 15.0655 7.4 14.0284 9.35L14.738 9.7Z" fill="#B48E0A"/>
<path d="M44.0306 5.475V4.25C44.0306 3.01667 43.603 2 42.7478 1.2C41.8926 0.4 40.81 0 39.5 0C38.0808 0 36.9709 0.408333 36.1703 1.225C35.3697 2.04167 34.9694 3.13333 34.9694 4.5V4.875C34.9694 4.94167 34.9785 5 34.9967 5.05L35.024 5.475C33.6776 4.59167 32.4676 4.15 31.3941 4.15C30.5571 4.15 29.7566 4.40833 28.9924 4.925C28.2646 5.40833 27.7278 6.04167 27.3821 6.825C27.1274 7.375 27 7.925 27 8.475C27 10.1583 28.0553 11.4417 30.1659 12.325L30.5753 12.5C28.1918 13.5 27 14.85 27 16.55C27 17.7 27.4367 18.7083 28.31 19.575C29.1834 20.4417 30.2205 20.875 31.4214 20.875C32.5131 20.875 33.5957 20.5167 34.6692 19.8L35.024 19.55C34.9876 19.8833 34.9694 20.2833 34.9694 20.75C34.9694 22 35.397 23.0208 36.2522 23.8125C37.1074 24.6042 38.19 25 39.5 25C40.9374 25 42.0519 24.5875 42.8433 23.7625C43.6348 22.9375 44.0306 21.8583 44.0306 20.525V19.55C45.377 20.4333 46.5779 20.875 47.6332 20.875C48.8159 20.875 49.8393 20.4375 50.7036 19.5625C51.5679 18.6875 52 17.6833 52 16.55C52 14.85 50.9447 13.5583 48.8341 12.675L48.4247 12.5C50.8082 11.5 52 10.1583 52 8.475C52 7.39167 51.5724 6.4 50.7172 5.5C49.8621 4.6 48.8295 4.15 47.6195 4.15C46.4096 4.15 45.3406 4.5 44.4127 5.2L44.0306 5.475ZM41.738 9.7C43.8486 6.88333 45.8046 5.475 47.6059 5.475C48.3519 5.475 49.0297 5.78333 49.6392 6.4C50.2487 7.01667 50.5535 7.70833 50.5535 8.475C50.5535 10.5417 48.1154 11.7667 43.2391 12.15V12.875C45.659 13.0583 47.4831 13.4583 48.7112 14.075C49.9394 14.6917 50.5535 15.5167 50.5535 16.55C50.5535 17.3 50.2578 17.9875 49.6665 18.6125C49.0751 19.2375 48.3883 19.55 47.6059 19.55C45.7682 19.55 43.8122 18.1333 41.738 15.3L41.0284 15.675C42.0655 17.6083 42.5841 19.2417 42.5841 20.575C42.5841 22.6417 41.556 23.675 39.5 23.675C38.5175 23.675 37.7533 23.4 37.2074 22.85C36.6798 22.2667 36.4159 21.5333 36.4159 20.65C36.4159 19.3167 36.9345 17.6583 37.9716 15.675L37.262 15.3C35.1878 18.1333 33.2318 19.55 31.3941 19.55C30.6481 19.55 29.9703 19.2542 29.3608 18.6625C28.7513 18.0708 28.4465 17.3667 28.4465 16.55C28.4465 14.4833 30.8755 13.2583 35.7336 12.875V12.15C30.8755 11.7833 28.4465 10.5583 28.4465 8.475C28.4465 7.74167 28.7376 7.05833 29.3199 6.425C29.9021 5.79167 30.5935 5.475 31.3941 5.475C33.1954 5.475 35.1514 6.88333 37.262 9.7L37.9716 9.35C36.9345 7.4 36.4159 5.73333 36.4159 4.35C36.4159 3.46667 36.6798 2.73333 37.2074 2.15C37.7533 1.6 38.5175 1.325 39.5 1.325C41.556 1.325 42.5841 2.35 42.5841 4.4C42.5841 5.75 42.0655 7.4 41.0284 9.35L41.738 9.7Z" fill="#B48E0A"/>
<path d="M71.0306 5.475V4.25C71.0306 3.01667 70.603 2 69.7478 1.2C68.8926 0.4 67.81 0 66.5 0C65.0808 0 63.9709 0.408333 63.1703 1.225C62.3697 2.04167 61.9694 3.13333 61.9694 4.5V4.875C61.9694 4.94167 61.9785 5 61.9967 5.05L62.024 5.475C60.6776 4.59167 59.4676 4.15 58.3941 4.15C57.5571 4.15 56.7566 4.40833 55.9924 4.925C55.2646 5.40833 54.7278 6.04167 54.3821 6.825C54.1274 7.375 54 7.925 54 8.475C54 10.1583 55.0553 11.4417 57.1659 12.325L57.5753 12.5C55.1918 13.5 54 14.85 54 16.55C54 17.7 54.4367 18.7083 55.31 19.575C56.1834 20.4417 57.2205 20.875 58.4214 20.875C59.5131 20.875 60.5957 20.5167 61.6692 19.8L62.024 19.55C61.9876 19.8833 61.9694 20.2833 61.9694 20.75C61.9694 22 62.397 23.0208 63.2522 23.8125C64.1074 24.6042 65.19 25 66.5 25C67.9374 25 69.0519 24.5875 69.8433 23.7625C70.6348 22.9375 71.0306 21.8583 71.0306 20.525V19.55C72.377 20.4333 73.5779 20.875 74.6332 20.875C75.8159 20.875 76.8393 20.4375 77.7036 19.5625C78.5679 18.6875 79 17.6833 79 16.55C79 14.85 77.9447 13.5583 75.8341 12.675L75.4247 12.5C77.8082 11.5 79 10.1583 79 8.475C79 7.39167 78.5724 6.4 77.7172 5.5C76.8621 4.6 75.8295 4.15 74.6195 4.15C73.4096 4.15 72.3406 4.5 71.4127 5.2L71.0306 5.475ZM68.738 9.7C70.8486 6.88333 72.8046 5.475 74.6059 5.475C75.3519 5.475 76.0297 5.78333 76.6392 6.4C77.2487 7.01667 77.5535 7.70833 77.5535 8.475C77.5535 10.5417 75.1154 11.7667 70.2391 12.15V12.875C72.659 13.0583 74.4831 13.4583 75.7112 14.075C76.9394 14.6917 77.5535 15.5167 77.5535 16.55C77.5535 17.3 77.2578 17.9875 76.6665 18.6125C76.0751 19.2375 75.3883 19.55 74.6059 19.55C72.7682 19.55 70.8122 18.1333 68.738 15.3L68.0284 15.675C69.0655 17.6083 69.5841 19.2417 69.5841 20.575C69.5841 22.6417 68.556 23.675 66.5 23.675C65.5175 23.675 64.7533 23.4 64.2074 22.85C63.6798 22.2667 63.4159 21.5333 63.4159 20.65C63.4159 19.3167 63.9345 17.6583 64.9716 15.675L64.262 15.3C62.1878 18.1333 60.2318 19.55 58.3941 19.55C57.6481 19.55 56.9703 19.2542 56.3608 18.6625C55.7513 18.0708 55.4465 17.3667 55.4465 16.55C55.4465 14.4833 57.8755 13.2583 62.7336 12.875V12.15C57.8755 11.7833 55.4465 10.5583 55.4465 8.475C55.4465 7.74167 55.7376 7.05833 56.3199 6.425C56.9021 5.79167 57.5935 5.475 58.3941 5.475C60.1954 5.475 62.1514 6.88333 64.262 9.7L64.9716 9.35C63.9345 7.4 63.4159 5.73333 63.4159 4.35C63.4159 3.46667 63.6798 2.73333 64.2074 2.15C64.7533 1.6 65.5175 1.325 66.5 1.325C68.556 1.325 69.5841 2.35 69.5841 4.4C69.5841 5.75 69.0655 7.4 68.0284 9.35L68.738 9.7Z" fill="#B48E0A"/>
<path d="M98.0306 5.475V4.25C98.0306 3.01667 97.603 2 96.7478 1.2C95.8926 0.4 94.81 0 93.5 0C92.0808 0 90.9709 0.408333 90.1703 1.225C89.3697 2.04167 88.9694 3.13333 88.9694 4.5V4.875C88.9694 4.94167 88.9785 5 88.9967 5.05L89.024 5.475C87.6776 4.59167 86.4676 4.15 85.3941 4.15C84.5571 4.15 83.7566 4.40833 82.9924 4.925C82.2646 5.40833 81.7278 6.04167 81.3821 6.825C81.1274 7.375 81 7.925 81 8.475C81 10.1583 82.0553 11.4417 84.1659 12.325L84.5753 12.5C82.1918 13.5 81 14.85 81 16.55C81 17.7 81.4367 18.7083 82.31 19.575C83.1834 20.4417 84.2205 20.875 85.4214 20.875C86.5131 20.875 87.5957 20.5167 88.6692 19.8L89.024 19.55C88.9876 19.8833 88.9694 20.2833 88.9694 20.75C88.9694 22 89.397 23.0208 90.2522 23.8125C91.1074 24.6042 92.19 25 93.5 25C94.9374 25 96.0519 24.5875 96.8433 23.7625C97.6348 22.9375 98.0306 21.8583 98.0306 20.525V19.55C99.377 20.4333 100.578 20.875 101.633 20.875C102.816 20.875 103.839 20.4375 104.704 19.5625C105.568 18.6875 106 17.6833 106 16.55C106 14.85 104.945 13.5583 102.834 12.675L102.425 12.5C104.808 11.5 106 10.1583 106 8.475C106 7.39167 105.572 6.4 104.717 5.5C103.862 4.6 102.83 4.15 101.62 4.15C100.41 4.15 99.3406 4.5 98.4127 5.2L98.0306 5.475ZM95.738 9.7C97.8486 6.88333 99.8046 5.475 101.606 5.475C102.352 5.475 103.03 5.78333 103.639 6.4C104.249 7.01667 104.553 7.70833 104.553 8.475C104.553 10.5417 102.115 11.7667 97.2391 12.15V12.875C99.659 13.0583 101.483 13.4583 102.711 14.075C103.939 14.6917 104.553 15.5167 104.553 16.55C104.553 17.3 104.258 17.9875 103.666 18.6125C103.075 19.2375 102.388 19.55 101.606 19.55C99.7682 19.55 97.8122 18.1333 95.738 15.3L95.0284 15.675C96.0655 17.6083 96.5841 19.2417 96.5841 20.575C96.5841 22.6417 95.556 23.675 93.5 23.675C92.5175 23.675 91.7533 23.4 91.2074 22.85C90.6798 22.2667 90.4159 21.5333 90.4159 20.65C90.4159 19.3167 90.9345 17.6583 91.9716 15.675L91.262 15.3C89.1878 18.1333 87.2318 19.55 85.3941 19.55C84.6481 19.55 83.9703 19.2542 83.3608 18.6625C82.7513 18.0708 82.4465 17.3667 82.4465 16.55C82.4465 14.4833 84.8755 13.2583 89.7336 12.875V12.15C84.8755 11.7833 82.4465 10.5583 82.4465 8.475C82.4465 7.74167 82.7376 7.05833 83.3199 6.425C83.9021 5.79167 84.5935 5.475 85.3941 5.475C87.1954 5.475 89.1514 6.88333 91.262 9.7L91.9716 9.35C90.9345 7.4 90.4159 5.73333 90.4159 4.35C90.4159 3.46667 90.6798 2.73333 91.2074 2.15C91.7533 1.6 92.5175 1.325 93.5 1.325C95.556 1.325 96.5841 2.35 96.5841 4.4C96.5841 5.75 96.0655 7.4 95.0284 9.35L95.738 9.7Z" fill="#B48E0A"/>
<path d="M125.031 5.475V4.25C125.031 3.01667 124.603 2 123.748 1.2C122.893 0.4 121.81 0 120.5 0C119.081 0 117.971 0.408333 117.17 1.225C116.37 2.04167 115.969 3.13333 115.969 4.5V4.875C115.969 4.94167 115.979 5 115.997 5.05L116.024 5.475C114.678 4.59167 113.468 4.15 112.394 4.15C111.557 4.15 110.757 4.40833 109.992 4.925C109.265 5.40833 108.728 6.04167 108.382 6.825C108.127 7.375 108 7.925 108 8.475C108 10.1583 109.055 11.4417 111.166 12.325L111.575 12.5C109.192 13.5 108 14.85 108 16.55C108 17.7 108.437 18.7083 109.31 19.575C110.183 20.4417 111.221 20.875 112.421 20.875C113.513 20.875 114.596 20.5167 115.669 19.8L116.024 19.55C115.988 19.8833 115.969 20.2833 115.969 20.75C115.969 22 116.397 23.0208 117.252 23.8125C118.107 24.6042 119.19 25 120.5 25C121.937 25 123.052 24.5875 123.843 23.7625C124.635 22.9375 125.031 21.8583 125.031 20.525V19.55C126.377 20.4333 127.578 20.875 128.633 20.875C129.816 20.875 130.839 20.4375 131.704 19.5625C132.568 18.6875 133 17.6833 133 16.55C133 14.85 131.945 13.5583 129.834 12.675L129.425 12.5C131.808 11.5 133 10.1583 133 8.475C133 7.39167 132.572 6.4 131.717 5.5C130.862 4.6 129.83 4.15 128.62 4.15C127.41 4.15 126.341 4.5 125.413 5.2L125.031 5.475ZM122.738 9.7C124.849 6.88333 126.805 5.475 128.606 5.475C129.352 5.475 130.03 5.78333 130.639 6.4C131.249 7.01667 131.553 7.70833 131.553 8.475C131.553 10.5417 129.115 11.7667 124.239 12.15V12.875C126.659 13.0583 128.483 13.4583 129.711 14.075C130.939 14.6917 131.553 15.5167 131.553 16.55C131.553 17.3 131.258 17.9875 130.666 18.6125C130.075 19.2375 129.388 19.55 128.606 19.55C126.768 19.55 124.812 18.1333 122.738 15.3L122.028 15.675C123.066 17.6083 123.584 19.2417 123.584 20.575C123.584 22.6417 122.556 23.675 120.5 23.675C119.517 23.675 118.753 23.4 118.207 22.85C117.68 22.2667 117.416 21.5333 117.416 20.65C117.416 19.3167 117.934 17.6583 118.972 15.675L118.262 15.3C116.188 18.1333 114.232 19.55 112.394 19.55C111.648 19.55 110.97 19.2542 110.361 18.6625C109.751 18.0708 109.447 17.3667 109.447 16.55C109.447 14.4833 111.876 13.2583 116.734 12.875V12.15C111.876 11.7833 109.447 10.5583 109.447 8.475C109.447 7.74167 109.738 7.05833 110.32 6.425C110.902 5.79167 111.594 5.475 112.394 5.475C114.195 5.475 116.151 6.88333 118.262 9.7L118.972 9.35C117.934 7.4 117.416 5.73333 117.416 4.35C117.416 3.46667 117.68 2.73333 118.207 2.15C118.753 1.6 119.517 1.325 120.5 1.325C122.556 1.325 123.584 2.35 123.584 4.4C123.584 5.75 123.066 7.4 122.028 9.35L122.738 9.7Z" fill="#B48E0A"/>
</svg>
