<svg width="281" height="281" viewBox="0 0 281 281" fill="none" xmlns="http://www.w3.org/2000/svg">
<path fill-rule="evenodd" clip-rule="evenodd" d="M0 0H281V281H0V0Z" fill="white"/>
<path fill-rule="evenodd" clip-rule="evenodd" d="M120.777 122.278C119.968 122.278 118.266 119.782 118.337 117.177L118.354 103.962H121.734C123.538 103.962 126.014 103.718 128.268 105.183C128.268 105.183 126.692 100.546 121.734 100.546H118.354V97.1276C118.354 97.1276 118.354 94.1989 117.68 93.2207H122.41C126.243 93.2207 129.397 93.2207 132.777 95.4176C132.777 95.4176 132.097 89.8036 124.212 89.8036H109.118C109.118 89.8036 111.821 92.2439 111.595 97.1261L111.821 117.149C111.821 122.028 113.622 122.272 113.622 122.272L120.777 122.278ZM170.542 96.1465L166.135 96.145C166.135 96.145 168.077 97.3783 166.924 102.629H166.93L163.501 118.057C163.501 118.057 163.148 120.225 162.501 120.213C160.234 120.174 159.206 116.489 158.823 115.236C158.566 114.413 156.05 99.9878 155.947 99.5505C155.144 96.2646 153.237 96.1494 152.089 96.1465H147.594C147.594 96.1465 148.786 96.8287 149.401 99.3143C149.484 99.6408 152.463 115.285 152.463 115.285C152.463 115.285 153.078 118.569 155.014 120.202C157.332 122.158 159.357 122.276 160.752 122.276C161.765 122.276 162.583 121.699 162.583 121.699L162.027 123.891C161.02 128.215 157.842 130.377 157.842 130.377C157.842 130.377 164.689 130.381 164.752 130.377C165.176 130.341 166.909 129.822 168.283 124.158L173.286 102.753C174.529 96.4862 172.032 96.1611 170.542 96.1465V96.1465ZM143.528 115.78C143.528 120.111 146.207 122.276 146.207 122.276H139.389C139.389 122.276 137.198 122.585 137.198 115.78V96.2995C137.198 91.0413 135.008 89.805 135.008 89.805H139.147C140.608 89.805 143.528 89.805 143.528 96.9191V115.78V115.78ZM233.783 183.367C238.9 182.533 240.585 180.368 240.585 180.368V174.101C236.528 181.476 229.897 178.896 228.421 178.155C223.627 176.315 223.256 170.048 223.256 170.048C226.946 165.621 231.368 166.729 237.267 160.462C244.639 152.718 239.11 144.241 228.789 144.241C218.097 144.241 212.198 154.195 212.198 164.883C212.198 174.305 217.638 181.725 225.999 183.354C228.069 183.752 231.697 183.698 233.783 183.367ZM168.334 178.897C166.121 178.897 164.277 176.684 164.277 174.102C164.277 164.519 172.388 163.046 174.601 160.465V176.686C173.496 177.786 172.755 178.897 168.334 178.897V178.897ZM42.6246 178.157H31.1984C27.513 178.157 27.8804 175.207 27.513 172.627V156.039H33.041C35.9916 156.039 40.0472 155.669 43.7325 157.881C43.7325 157.881 41.1508 150.88 33.041 150.88H27.513V145.718C27.513 145.718 27.513 141.296 26.4066 139.816H34.149C40.4146 139.816 45.5767 139.816 51.1061 143.139C51.1061 143.139 49.9982 134.659 37.0981 134.659H12.3986C12.3986 134.659 16.823 138.344 16.4542 145.718L16.8215 175.947C16.8215 181.094 18.2589 182.829 19.1263 183.403H46.4863C50.2752 182.447 51.8438 179.281 51.8438 177.419V174.47C51.8438 174.47 49.9967 178.157 42.6246 178.157V178.157ZM260.124 172.997C260.124 175.575 257.542 179.264 252.382 179.264C246.852 179.264 245.01 173.735 245.01 173.735V180.737C245.01 180.737 247.418 182.667 251.462 183.405H257.373C263.079 182.26 268.313 177.722 268.603 171.828V170.786C268.603 168.204 267.865 165.991 266.39 163.781C263.81 160.832 259.385 158.619 256.066 156.409C254.223 155.301 253.121 153.093 253.121 152.352C253.121 150.88 253.856 148.298 259.015 148.298C264.177 148.298 266.39 153.83 266.39 153.83V147.193C266.39 147.193 262.336 144.244 256.439 144.244C250.172 144.244 244.639 148.298 244.639 153.46C245.01 158.252 246.852 161.202 250.539 163.781C252.014 164.886 253.856 165.991 256.066 167.101C259.016 168.94 260.124 170.784 260.124 172.997V172.997ZM174.601 156.776C172.019 160.831 153.588 161.568 156.537 176.317C157.4 180.636 159.844 182.706 163.154 183.403H168.72C171.878 182.674 173.715 180.667 174.599 178.896C175.337 183.317 177.546 183.317 177.546 183.317H187.87C187.87 183.317 183.816 180.735 183.816 175.573V153.829C183.816 148.664 177.916 144.242 172.016 144.242C166.119 144.242 162.065 147.191 162.065 147.191V154.196C162.065 154.196 164.275 148.664 169.808 148.664C174.967 148.664 175.337 151.244 175.337 152.718C175.337 152.719 175.704 154.196 174.601 156.776V156.776ZM121.146 141.296C123.726 141.296 125.939 139.08 125.939 136.5C125.939 133.922 123.726 131.71 121.146 131.71C118.566 131.71 116.354 133.922 116.354 136.5C116.354 139.08 118.567 141.296 121.146 141.296ZM230.999 158.252C232.477 154.935 233.951 146.823 228.053 147.193C221.418 147.928 222.523 165.991 222.523 165.991C224.735 163.414 228.421 163.046 230.999 158.252ZM205.932 148.665C209.251 148.665 211.832 150.511 211.832 150.511V144.614H203.353V135.396C203.353 135.396 201.146 139.449 196.351 143.14C193.402 145.72 187.138 148.667 187.138 148.667H193.769V175.949C193.769 183.322 197.089 183.322 197.089 183.322H207.413C207.413 183.322 203.353 180.74 203.353 175.949V148.667L205.932 148.665V148.665ZM157.642 147.56C157.642 147.56 156.905 144.614 152.48 144.614C145.846 144.614 144.372 152.353 144.372 152.353C144.005 146.086 142.159 144.245 137.737 144.245H131.472C131.472 144.245 135.156 145.72 135.156 152.353V175.576C135.156 183.32 138.106 183.32 138.106 183.32H148.426C148.062 183.32 144.372 180.738 144.372 175.576V156.412C144.742 154.566 145.847 153.463 146.952 152.355C150.269 150.145 155.063 150.883 157.644 153.833L157.642 147.56V147.56ZM125.939 175.575C125.939 180.737 129.995 183.319 129.995 183.319H119.672C119.672 183.319 116.354 183.686 116.354 175.575V152.352C116.354 146.085 113.036 144.613 113.036 144.613H119.304C121.516 144.613 125.939 144.613 125.939 153.091V175.575V175.575ZM107.874 175.575V154.565C107.874 146.457 101.241 144.244 96.0793 144.244C89.8122 144.244 87.6022 149.77 86.8645 151.616C85.3878 146.457 80.2271 144.244 76.1715 144.244C68.0633 144.244 66.2206 151.616 66.2206 151.616C66.2206 151.616 65.8518 144.614 59.5847 144.614H53.3176C53.3176 144.614 57.0029 146.086 57.0029 152.353V175.576C57.0029 181.014 58.4563 182.817 59.3237 183.406H69.9482C68.954 182.555 66.2206 180.024 66.2206 175.576V154.937C66.5894 153.832 68.0633 150.883 72.4877 150.883C75.068 150.883 77.6483 153.463 77.6483 156.412V175.576C77.6483 183.32 80.5974 183.32 80.5974 183.32H90.9187C90.9187 183.32 87.2333 180.738 87.2333 175.576V154.937C87.6036 153.832 88.7086 150.883 92.7628 150.883C95.7134 150.883 98.2908 153.463 98.2908 156.412V175.576C98.2908 183.687 101.61 183.32 101.61 183.32H111.931C111.931 183.32 107.874 180.737 107.874 175.575V175.575Z" fill="#6B7379"/>
</svg>
