<svg width="282" height="281" viewBox="0 0 282 281" fill="none" xmlns="http://www.w3.org/2000/svg">
<path fill-rule="evenodd" clip-rule="evenodd" d="M0.604004 0H281.604V281H0.604004V0Z" fill="white"/>
<path fill-rule="evenodd" clip-rule="evenodd" d="M261.408 247.608V237.693C261.408 232.226 258.161 233.764 258.161 232.739C258.161 232.569 258.332 232.569 258.502 232.569H261.065C261.236 232.569 261.578 232.91 261.749 233.082L274.397 247.266C274.564 247.437 274.564 247.608 274.735 247.608V236.157C274.735 232.569 271.831 233.594 271.831 232.739C271.831 232.569 272.001 232.569 272.172 232.569H277.13C277.301 232.569 277.471 232.569 277.471 232.739C277.471 233.423 275.933 232.91 275.933 234.96V250.341C275.933 251.025 275.933 251.366 275.592 251.366C275.421 251.366 275.248 251.366 274.735 250.682L263.288 237.864C263.115 237.693 262.944 237.35 262.602 237.35C262.602 237.35 262.431 237.351 262.431 237.864V248.803C262.431 251.195 264.823 250.341 264.823 251.023C264.823 251.194 264.823 251.364 264.482 251.364C263.969 251.364 263.115 251.194 261.919 251.194C260.894 251.194 259.527 251.364 259.356 251.364C259.015 251.364 259.015 251.194 259.015 251.023C259.017 250.169 261.408 251.195 261.408 247.608V247.608ZM247.226 251.536C241.586 251.536 237.998 247.437 237.998 241.795C237.998 236.326 242.27 232.226 247.739 232.226C253.206 232.226 257.308 236.155 257.308 241.625C257.308 247.608 253.205 251.536 247.226 251.536V251.536ZM246.883 233.081C242.439 233.081 239.876 236.839 239.876 241.113C239.876 245.896 243.122 250.682 248.42 250.682C252.349 250.682 255.425 247.608 255.425 242.647C255.426 237.864 252.18 233.081 246.883 233.081V233.081ZM227.4 248.974V235.13C227.4 234.96 227.4 233.935 227.059 233.935H222.788C221.079 233.935 221.079 234.448 220.57 235.814C220.57 236.155 220.57 236.498 220.226 236.498C220.138 236.492 220.054 236.454 219.992 236.391C219.929 236.328 219.891 236.245 219.885 236.157L220.226 233.594C220.226 233.253 220.226 232.569 220.57 232.569H235.944C236.628 232.569 236.628 232.739 236.798 233.253V235.47C236.969 235.643 236.969 235.986 236.628 235.986C235.603 235.986 236.969 233.936 234.236 233.936H230.477C229.282 233.936 229.453 233.936 229.453 235.301V248.806C229.453 251.026 231.673 250.173 231.673 251.026C231.673 251.026 231.673 251.367 231.335 251.367C230.819 251.367 229.966 251.197 229.282 251.197C226.205 251.197 225.691 251.367 225.521 251.367C225.35 251.367 225.35 251.197 225.35 251.026C225.35 250.341 227.4 250.682 227.4 248.974V248.974ZM212.364 235.13V248.119C212.364 249.654 212.194 250.34 214.414 250.34C220.57 250.34 221.422 247.606 221.763 247.606C221.933 247.606 221.933 247.777 221.933 247.777C221.933 248.802 221.25 249.653 220.569 250.34C219.712 251.364 219.2 251.364 218.003 251.364C215.95 251.364 213.901 251.194 212.02 251.194C210.825 251.194 209.797 251.364 208.771 251.364C208.433 251.364 208.261 251.194 208.261 251.023C208.431 250.682 208.599 250.853 209.456 250.34C210.14 249.998 210.31 249.315 210.31 248.119V234.617C210.31 233.25 208.087 233.422 208.087 232.909C208.087 232.567 208.26 232.567 208.6 232.567H213.729C214.07 232.567 214.242 232.567 214.242 232.909C214.243 233.422 212.364 232.91 212.364 235.13V235.13ZM199.549 241.625L203.991 248.46C206.04 251.364 207.237 250.34 207.237 251.023C207.237 251.364 205.699 251.364 205.529 251.364C203.649 251.364 202.625 249.997 201.6 248.46L198.525 243.845C197.668 242.307 198.009 242.476 195.105 242.476C194.251 242.476 194.422 242.82 194.422 243.163V248.803C194.422 251.023 197.158 250.17 197.158 251.195C197.158 251.366 196.984 251.366 196.642 251.366C196.471 251.366 195.79 251.195 193.567 251.195C192.713 251.195 191.688 251.366 190.663 251.366C190.575 251.36 190.492 251.322 190.429 251.259C190.366 251.196 190.328 251.113 190.322 251.025C190.322 250.341 192.372 250.684 192.372 248.804V235.132C192.372 232.569 189.98 233.764 189.98 232.911C189.98 232.741 190.15 232.57 190.493 232.57H196.643C197.159 232.57 202.97 232.057 202.97 237.183C202.967 239.233 201.428 240.941 199.549 241.625V241.625ZM194.42 234.447V241.112C194.42 241.625 195.958 241.453 197.324 241.453C198.349 241.453 200.915 240.94 200.915 237.692C200.915 234.445 198.522 233.42 195.958 233.42C194.933 233.422 194.42 233.422 194.42 234.447V234.447ZM183.654 247.094L182.8 245.042C182.459 244.358 182.287 244.017 181.605 244.017H175.794C175.281 244.017 174.769 244.017 174.429 244.53L172.718 248.291C172.718 248.462 172.547 248.804 172.547 249.146C172.547 251.025 174.429 250.17 174.429 250.854C174.429 251.367 174.085 251.367 173.743 251.367C173.059 251.367 172.205 251.197 171.522 251.197C170.84 251.197 170.154 251.367 169.47 251.367C169.381 251.361 169.298 251.323 169.235 251.261C169.173 251.198 169.135 251.115 169.129 251.026C169.129 250.513 170.496 250.856 171.181 249.485L177.502 235.815C179.04 232.569 179.04 232.057 179.381 232.057C179.726 232.057 179.895 232.911 180.065 233.082L185.535 246.752C185.876 247.78 186.219 248.804 186.902 249.826C187.586 251.025 189.125 250.342 189.125 251.025C189.125 251.366 188.952 251.366 188.784 251.366C187.757 251.366 186.732 251.195 185.535 251.195C184.851 251.195 184.167 251.366 183.485 251.366C183.315 251.366 182.801 251.366 182.801 251.025C182.801 250.341 184.51 250.684 184.51 249.656C184.509 249.144 183.826 247.949 183.654 247.094V247.094ZM178.527 235.814L175.623 242.308C175.453 242.647 175.623 242.822 175.964 242.822H181.263C181.777 242.822 181.777 242.648 181.605 242.308L179.039 235.814C178.868 235.468 178.698 235.468 178.527 235.814V235.814ZM145.377 240.087C145.377 233.079 150.33 227.609 157.338 227.609C163.491 227.609 165.371 230.175 166.225 230.175C166.566 230.175 166.738 229.831 167.079 229.831C167.423 229.831 167.423 230.344 167.592 232.397C167.592 234.276 167.933 235.298 167.254 235.298C166.91 235.298 166.738 234.447 166.567 234.276C164.518 230.688 162.125 228.462 157.851 228.462C151.36 228.462 148.282 232.739 148.282 239.062C148.282 244.699 151.532 250.512 158.023 250.512C163.152 250.512 166.397 247.265 166.91 245.726C166.91 245.555 167.254 245.212 167.426 245.212C167.594 245.212 167.764 245.554 167.594 245.554L166.91 248.974C166.91 249.144 164.518 251.536 156.998 251.536C150.33 251.536 145.377 246.924 145.377 240.087V240.087ZM136.661 243.846L141.616 241.967C142.13 241.797 142.643 241.626 142.814 241.626C143.155 241.626 143.155 242.139 143.155 242.478C143.155 243.676 143.155 243.505 142.13 243.846L137.174 245.726C136.661 245.896 136.319 246.067 135.978 246.067C135.637 246.067 135.808 245.554 135.808 245.383C135.808 244.188 135.636 244.188 136.661 243.846V243.846ZM132.048 233.764L123.161 248.803C122.82 249.316 122.82 249.654 122.82 249.825C122.82 249.998 123.161 250.169 123.845 250.169H128.8C132.219 250.169 132.048 248.29 133.073 248.29C133.244 248.29 133.243 248.631 133.243 248.803L132.219 250.512C131.879 251.195 131.536 251.195 131.023 251.195H120.085C119.913 251.195 119.743 251.025 119.743 250.854C119.743 250.684 119.743 250.513 119.913 250.341L129.141 234.619C129.482 234.448 129.654 233.935 129.654 233.935C129.654 233.764 129.482 233.764 129.482 233.764H123.844C120.254 233.764 121.112 236.498 120.254 236.498C120.166 236.492 120.083 236.454 120.02 236.391C119.957 236.328 119.919 236.245 119.913 236.157L120.254 233.423C120.425 232.739 120.425 232.569 121.282 232.569H131.535C132.217 232.569 132.386 232.739 132.386 233.082C132.386 233.425 132.219 233.592 132.048 233.764V233.764ZM109.32 248.974V235.13C109.32 234.96 109.32 233.935 108.978 233.935H104.706C102.997 233.935 102.997 234.448 102.485 235.814C102.485 236.155 102.315 236.498 101.972 236.498C101.802 236.498 101.802 236.327 101.802 236.157L101.972 233.594C102.144 233.253 101.972 232.569 102.485 232.569H117.865C118.549 232.569 118.549 232.739 118.549 233.253L118.719 235.47C118.719 235.643 118.89 235.986 118.549 235.986C117.525 235.986 118.89 233.936 116.157 233.936H112.397C111.2 233.936 111.372 233.936 111.372 235.301V248.806C111.372 251.026 113.422 250.173 113.422 251.026C113.422 251.026 113.592 251.367 113.251 251.367C112.567 251.367 111.884 251.197 111.03 251.197C108.126 251.197 107.612 251.367 107.442 251.367C107.353 251.361 107.27 251.323 107.207 251.261C107.145 251.198 107.107 251.115 107.101 251.026C107.098 250.341 109.32 250.682 109.32 248.974V248.974ZM95.6482 248.462V234.789C95.6482 232.91 93.5971 233.422 93.5971 232.739C93.5971 232.569 93.5971 232.569 93.7691 232.569H99.2359C99.5799 232.569 99.752 232.569 99.752 232.739C99.752 233.423 97.6994 232.739 97.6994 234.789V249.146C97.6994 250.854 100.092 250.341 100.092 251.025C100.092 251.195 100.092 251.366 99.5814 251.366C99.0668 251.366 97.8699 251.195 96.6745 251.195C95.1366 251.195 94.6234 251.366 94.1117 251.366C93.7706 251.366 93.5986 251.195 93.5986 250.853C93.5971 250.169 95.6482 251.023 95.6482 248.462V248.462ZM82.6607 239.405L88.1289 247.778C90.5212 251.366 92.2297 250.17 92.2297 251.025C92.2297 251.366 90.3491 251.366 90.008 251.366C87.6158 251.366 86.2483 249.654 85.0529 247.778L81.4638 241.967C80.267 240.088 80.6096 240.259 77.0219 240.259C75.8251 240.259 76.1676 240.772 76.1676 241.113V248.121C76.1676 251.025 79.5862 250 79.5862 251.025C79.5862 251.366 79.2436 251.366 79.073 251.366C78.7319 251.366 77.8776 251.195 75.1428 251.195C73.946 251.195 72.5785 251.366 71.3861 251.366C71.2974 251.36 71.2138 251.323 71.151 251.26C71.0882 251.197 71.0504 251.113 71.0449 251.025C71.0449 250.17 73.4343 250.684 73.4343 248.121V231.203C73.4343 227.954 70.6994 229.321 70.6994 228.293C70.6994 228.126 70.8715 227.783 71.2155 227.783C71.8963 227.783 71.7272 227.954 73.4343 227.954C75.3148 227.954 77.1939 227.783 78.9025 227.783C79.4142 227.783 86.7629 227.099 86.7629 233.594C86.7615 236.155 85.0529 238.377 82.6607 239.405V239.405ZM76.1662 230.177V238.547C76.1662 239.234 78.2188 239.063 79.7553 239.063C81.1227 239.063 84.3692 238.547 84.3692 234.277C84.3692 230.346 81.2933 228.978 78.0468 228.978C76.8514 228.977 76.1662 228.806 76.1662 230.177V230.177ZM52.2422 235.298V240.257C52.2422 241.112 52.2422 241.112 53.267 241.112H56.1724C58.9058 241.112 58.2221 239.062 58.7352 239.062C59.0764 239.062 59.0764 239.233 59.0764 239.572V244.358C59.0703 244.447 59.0323 244.53 58.9697 244.593C58.907 244.655 58.8237 244.693 58.7352 244.699C57.881 244.699 58.9058 242.307 56.6841 242.307H52.7539C52.0702 242.307 52.2407 242.82 52.2407 243.161V248.118C52.2407 249.653 52.0702 250.338 54.2904 250.338C60.4453 250.338 61.2981 247.605 61.6392 247.605C61.8098 247.605 61.8098 247.775 61.8098 247.775C61.8098 248.8 61.126 249.651 60.4453 250.338C59.5881 251.363 59.0749 251.363 57.8795 251.363C55.8299 251.363 53.9493 251.192 51.8982 251.192C50.7028 251.192 49.6779 251.363 48.6502 251.363C48.3091 251.363 48.1385 251.192 48.1385 251.022C48.3091 250.681 48.4796 250.851 49.3339 250.338C50.0176 249.997 50.1882 249.313 50.1882 248.118V235.983C50.1882 234.788 50.1882 233.42 48.6487 233.25C48.4782 233.25 47.965 233.079 47.965 232.909C47.965 232.567 47.965 232.567 48.8193 232.567H60.0983C60.2689 232.567 60.4423 232.738 60.4423 233.081C60.4423 235.985 60.0983 236.327 59.9277 236.327C59.244 236.327 59.5851 234.96 59.244 234.448C58.5603 233.423 55.8255 233.594 54.6286 233.594C52.2422 233.592 52.2422 233.592 52.2422 235.298ZM29.5151 248.462V234.789C29.5151 232.91 27.2934 233.422 27.2934 232.739C27.2934 232.569 27.4639 232.569 27.6345 232.569H33.1027C33.4438 232.569 33.6159 232.739 33.6159 232.739C33.6159 233.253 31.5662 232.739 31.5662 234.789V240.6C31.5662 240.941 31.5662 240.941 32.0793 240.941H41.8204C41.9909 240.941 41.9909 240.428 41.9909 240.257V234.788C41.9909 232.909 39.9398 233.42 39.9398 232.738C39.9398 232.567 40.1118 232.567 40.453 232.567H45.0669C45.7506 232.567 45.9212 232.738 45.9212 232.909C45.9212 233.422 44.0406 232.909 44.0406 234.788V248.802C44.0406 250.851 46.4343 250.34 46.4343 251.022C46.4343 251.022 46.4343 251.363 46.2638 251.363C45.4095 251.363 44.7243 251.192 43.6995 251.192C41.9909 251.192 41.3072 251.363 40.7955 251.363C40.453 251.363 40.1118 251.363 40.1118 251.022C40.1118 250.338 41.9909 250.681 41.9909 248.972V242.645C41.9909 242.307 42.163 241.964 41.8204 241.964H31.9088C31.5677 241.964 31.5677 242.135 31.5677 242.475V249.143C31.5677 250.851 34.1305 250.338 34.1305 251.192C34.1305 251.192 33.9599 251.363 33.7893 251.363C33.4468 251.363 31.3971 251.192 30.0297 251.192C28.1491 251.192 27.808 251.363 27.808 251.363C27.636 251.363 27.4654 251.192 27.4654 250.85C27.4639 250.169 29.5151 251.023 29.5151 248.462V248.462ZM14.1353 248.462V231.201C14.1353 231.031 14.3058 229.661 13.7927 229.661H8.32447C6.2748 229.661 6.2748 230.177 5.59109 232.056C5.59109 232.397 5.41907 232.739 5.07794 232.739C4.98949 232.733 4.90623 232.695 4.84354 232.633C4.78084 232.57 4.74294 232.487 4.73682 232.398L5.07794 229.149C5.07794 228.808 5.07794 227.781 5.76165 227.781C8.32447 227.781 10.8887 227.952 15.1601 227.952C21.1415 227.952 24.2174 227.781 24.9011 227.781C25.5834 227.781 25.7554 228.123 25.7554 228.806L25.926 231.543C26.0965 231.713 26.0965 232.226 25.5834 232.226C24.388 232.226 26.0965 229.661 22.85 229.661H18.0655C16.5275 229.661 16.6981 229.49 16.6981 231.372V248.29C16.6981 251.023 19.4315 249.998 19.4315 251.023C19.4315 251.023 19.4315 251.364 19.0903 251.364C18.2361 251.364 17.3818 251.194 16.357 251.194C12.7693 251.194 12.0856 251.364 11.9136 251.364C11.5724 251.364 11.4004 251.194 11.4004 250.851C11.4004 250.169 14.1353 250.512 14.1353 248.462V248.462ZM139.909 33.1329C144.864 32.9623 149.819 33.8166 150.502 33.4755C153.071 32.6212 155.459 31.9375 157.167 30.3995C159.388 28.519 161.953 29.8864 163.15 30.9127L165.371 32.4507C166.738 33.8181 169.299 37.0661 169.986 37.7483C171.181 38.432 171.524 38.432 172.549 38.432C176.991 38.2615 182.801 41.8506 183.826 45.9514C184.51 48.5142 186.047 57.4009 186.219 57.9141C187.243 59.6226 189.125 62.0149 189.296 62.6986C190.15 64.2366 187.927 63.2117 188.268 64.9203C188.612 67.3125 190.321 68.6799 191.346 68.8505C194.933 72.9513 194.933 76.883 194.592 77.0521C194.422 77.2227 191.688 76.539 191.518 76.711V77.5652C194.08 85.2552 196.643 90.2117 190.663 99.9513C189.465 101.66 188.784 103.199 188.44 105.249C188.44 106.103 188.953 108.495 188.953 110.033C189.127 113.452 187.245 115.844 185.366 118.579C181.094 125.072 178.53 131.567 184.17 138.574C187.245 142.334 190.153 143.87 194.594 141.137C195.961 139.77 196.132 138.574 197.159 138.574C199.209 140.112 199.722 144.041 199.382 146.946C199.036 151.903 194.935 155.32 190.152 156.515C177.333 159.593 171.525 153.441 169.643 153.098C166.056 152.585 152.727 152.415 145.721 147.288C142.474 144.554 140.935 142.675 139.911 142.843C135.471 143.87 134.443 149.853 123.507 151.39C120.259 151.731 116.673 151.56 113.941 152.757C106.935 157.199 99.0712 160.619 88.1347 157.031C82.3239 154.808 74.1223 144.726 81.2991 138.232C82.3239 140.112 84.3751 141.991 87.2805 143.87C89.1625 144.725 95.4835 145.408 99.7578 141.478C102.149 139.256 103.516 136.863 104.028 133.788L104.882 117.041C105.395 112.426 106.764 108.495 108.983 104.395C109.837 103.027 112.229 100.635 111.718 99.097C111.376 97.9016 110.352 97.9016 109.496 97.3884C108.471 96.5342 108.128 95.1667 107.787 94.1405C107.104 92.2599 106.42 90.2102 106.077 89.6971C104.539 87.4754 99.5858 86.28 96.6789 86.4505C94.9704 87.1343 94.6278 88.1591 93.4309 87.1343C92.0635 85.5963 92.2355 84.2289 92.9192 83.3746C94.2867 81.3235 94.9689 80.6398 100.608 80.2986C102.829 80.4692 105.735 82.1792 106.418 81.494C107.443 80.2986 104.026 76.8801 103.344 76.539C101.633 75.8552 100.608 75.6847 99.5843 73.463C98.5566 71.2428 96.848 65.6025 96.5054 65.2614C95.4806 64.2351 94.7969 63.2103 94.2852 61.6723C93.9441 60.1343 94.2852 58.4243 95.4821 57.2289L96.3378 56.7158C97.3612 56.0321 98.8991 55.3484 99.9254 54.4941L101.119 53.6398C101.803 52.9561 107.614 50.2213 110.86 48.6847L112.057 48.001C113.939 46.4616 113.767 45.7793 114.963 43.2165C115.304 42.3608 115.988 42.0197 116.33 41.6771C118.211 40.8228 119.918 40.3097 121.97 39.7965C122.825 39.7965 130.856 39.4554 133.42 38.2585C135.636 37.2337 137.516 33.1329 139.909 33.1329V33.1329ZM162.808 53.9824C162.295 53.4692 161.44 52.1018 163.491 52.787C169.471 55.1792 173.574 58.2552 177.502 65.432C181.605 72.6102 180.752 77.0536 176.819 83.3775C175.794 85.086 170.495 90.7263 169.811 92.0922C167.932 93.9728 164.857 96.8767 164.174 99.6116C163.835 100.292 164.515 100.638 165.199 100.292C171.009 97.5604 178.698 91.5791 181.263 88.6737C184.167 84.914 185.705 80.8132 183.484 74.3187C183.143 73.2939 181.605 70.9002 180.75 69.0211C180.064 67.6537 179.381 64.7483 178.698 62.6971C177.673 59.6212 175.964 57.3995 173.402 55.5189C171.009 53.6398 166.566 51.0755 164.685 48.5127C163.49 46.8042 164.515 45.7793 165.54 43.7282C168.102 40.1406 162.293 31.0832 158.361 32.1081C155.799 33.1329 157.678 32.9623 151.699 36.0383C148.792 37.5763 147.768 40.9948 149.65 43.2165C150.845 44.4119 152.896 46.1205 153.408 46.6336C153.408 46.8042 153.749 47.3173 153.07 47.4879C152.042 48.001 152.042 48.3422 151.358 47.8305C151.014 47.6599 149.989 46.8042 149.306 46.1205C148.11 45.0956 144.009 42.1902 143.498 41.8476C139.566 40.3097 127.775 40.4802 123.332 41.1639C121.284 41.5051 118.547 42.3593 118.034 42.8725C117.864 43.043 116.155 45.2647 116.496 45.4353H117.009C117.695 45.2647 119.402 44.2384 120.256 43.8973C121.284 43.7268 125.04 44.2384 125.726 45.4353C125.554 45.4353 123.845 45.2647 122.82 45.2647C119.915 45.9484 121.794 48.8524 122.648 48.6833H124.702V49.367L124.53 49.8801L123.502 51.0755C123.161 51.4167 123.332 51.4167 124.016 51.4167C125.383 51.2461 126.067 51.0755 126.067 51.7592C125.211 52.7855 122.991 54.1515 121.966 54.3221C120.427 54.8352 120.943 53.9809 119.572 52.7841C119.231 52.443 117.353 51.9298 116.839 51.5872L116.155 50.9035C115.47 49.0229 115.983 48.1701 114.788 48.6818C114.447 48.8524 100.946 54.8337 98.5536 56.7129C98.2125 57.0554 97.8699 57.226 97.5288 57.7391C96.8451 58.936 96.3349 59.7903 96.5025 60.474C96.8451 60.9871 96.8451 61.4988 97.3568 61.8414C98.2111 62.5251 99.4079 60.9871 100.603 60.474C101.116 60.1314 101.458 60.302 101.628 60.8151C101.8 61.6694 100.262 63.2074 99.9225 63.8896C98.5536 66.4539 99.9225 69.5298 101.287 72.0941C102.143 73.6321 102.654 72.4352 103.851 71.409C105.56 69.5298 110.857 69.1887 112.737 68.1624C113.25 67.8213 115.47 65.9407 116.668 65.5996C118.377 65.2585 120.426 66.6244 121.284 68.505C122.478 70.3856 126.409 73.4601 127.605 74.3158C129.143 75.3406 129.997 76.8801 129.656 78.246C129.484 78.5886 124.53 79.1018 122.136 80.1266C119.915 80.9809 118.889 82.5189 117.524 84.0568C111.028 89.3545 110.177 87.6459 108.978 89.0119C107.44 90.5513 110.177 96.0196 112.567 96.0196C115.642 95.849 115.471 97.0458 118.549 95.5064C119.574 94.6521 120.257 93.6258 120.944 92.2584C122.138 89.6956 122.138 89.1839 123.505 87.3034C126.07 83.8863 129.487 82.1763 133.929 81.322C135.47 80.9809 143.67 82.3483 146.065 80.9809C149.136 78.5872 147.77 76.1949 145.378 76.0244C144.695 75.8538 143.499 75.8538 142.815 76.0244L140.933 76.1949C140.933 76.1949 140.933 75.1701 141.104 74.8275C142.986 70.2121 147.769 67.6507 153.409 66.795C153.922 66.795 153.922 66.6244 154.777 67.3082C155.118 67.4787 155.118 67.9919 154.947 68.333C153.922 70.2136 153.752 70.043 153.242 72.4352C152.214 77.9035 153.071 77.3903 150.673 80.9809C148.453 82.6894 146.231 83.7143 143.498 84.0554C135.978 86.2771 129.484 89.353 123.332 93.6258C119.913 96.1887 115.301 100.461 113.936 102.171C107.611 110.716 106.586 120.97 107.611 127.635C108.124 133.275 107.098 141.99 104.192 145.236C98.7242 151.047 90.0095 149.681 87.9583 148.653C87.4452 148.143 86.7615 147.802 86.4204 147.802C85.5675 147.632 85.0529 148.315 85.0529 148.653C85.5675 151.56 90.18 154.638 94.9645 155.319C97.0157 155.489 101.458 154.977 104.022 153.269L106.072 151.731L105.558 149.681C105.558 149.681 111.197 146.774 112.053 135.835C112.223 132.933 112.394 125.926 112.223 124.902L111.712 122.337C111.371 120.629 112.053 106.615 114.445 103.368C115.641 101.66 117.353 99.6087 120.085 98.0707C129.996 92.0879 142.643 91.063 151.529 84.0568C159.388 78.0755 161.27 73.9747 160.583 68.1639C159.045 60.9871 154.603 60.474 151.358 58.936C150.501 58.5934 150.672 57.398 149.989 56.2012C149.819 55.86 147.769 53.8089 147.085 53.2958C146.744 53.1252 146.402 52.7826 146.231 52.6121C145.206 51.5858 147.769 51.2446 147.598 51.2446C148.112 51.2446 148.453 51.0741 149.136 51.2446C153.752 51.7578 160.417 53.2958 163.493 57.0554C166.739 60.6431 167.935 64.9174 167.254 69.5313C165.713 75.8538 162.125 80.4677 156.488 83.5451C149.136 88.3296 142.474 91.5762 134.099 94.6536C131.195 96.021 128.802 97.2164 125.898 98.5838C123.505 99.9512 120.944 101.832 119.233 105.419C117.011 110.204 115.643 119.091 117.011 123.877C117.183 126.27 116.327 127.807 117.355 129.174C117.525 129.687 117.865 129.858 118.549 130.029C120.257 124.731 118.378 117.212 125.212 109.522C129.313 104.565 133.074 102.173 138.885 99.097C139.386 98.7499 139.983 98.5703 140.592 98.5838L140.422 100.289C140.251 101.147 138.885 103.709 138.029 105.59C137.175 107.812 134.781 117.04 135.809 120.629C137.177 128.319 137.859 133.618 144.865 139.599C150.161 144.213 156.997 143.529 159.389 142.675C160.076 142.334 160.417 141.821 159.73 140.966C159.217 140.453 158.535 140.283 157.681 139.94C151.016 136.353 145.719 130.542 144.181 123.364C143.327 120.458 143.157 118.75 142.473 117.381C142.302 116.869 141.788 116.869 141.617 117.551C141.276 118.748 141.447 120.627 141.104 120.97C139.909 121.824 138.885 116.356 138.885 116.185C137.175 104.906 145.893 95.6784 148.451 92.773C149.989 91.0645 152.726 88.6722 154.092 87.9885C154.946 87.6459 155.8 87.9885 155.63 88.3297C155.288 89.1839 151.185 95.1653 150.33 97.0458C149.817 97.9001 148.11 104.393 147.597 106.957C147.938 108.838 148.792 110.888 150.16 106.957C151.529 102.857 155.971 95.3358 158.876 91.5762C166.054 82.5189 165.029 81.8351 168.445 77.5638C168.616 77.2212 169.129 77.3918 169.299 77.9049C169.47 78.4181 169.812 78.7592 169.64 79.784C169.64 80.4677 169.299 82.6894 169.984 82.86C170.668 82.86 170.668 82.86 171.522 80.4677C171.864 79.2723 172.547 76.5375 172.718 73.6321C172.718 72.2647 172.547 70.3841 172.377 69.3593C171.522 62.8677 168.102 59.108 162.808 53.9824V53.9824ZM163.49 129.346C164.344 137.549 174.597 153.442 186.388 150.196C187.926 149.855 188.437 150.196 189.978 148.828C190.319 148.655 191.346 147.804 190.662 147.288L186.901 146.433C181.947 146.946 176.135 141.137 174.94 136.864L173.572 133.105C173.231 132.08 172.718 129.004 171.864 128.66H171.522C171.352 128.66 171.009 129.687 170.668 130.201C165.712 128.32 166.736 118.922 168.786 116.016L172.547 110.889C175.964 107.641 182.629 101.66 182.971 100.978C182.971 100.978 184.338 98.4133 184.679 97.731C184.679 97.3884 184.85 96.8753 184.509 96.7047L174.597 103.199C171.18 105.421 161.268 109.694 161.268 109.694C157.337 111.574 153.068 120.46 158.361 127.467C158.703 127.808 159.045 128.151 159.557 127.295C159.727 126.784 160.414 122.168 160.924 119.605C161.098 118.58 162.806 114.308 164.515 114.65L164.685 114.991C164.856 115.162 164.002 118.067 163.49 120.46C162.978 122.681 163.49 128.151 163.49 129.346V129.346ZM127.092 141.311C126.75 140.969 126.921 140.627 127.264 139.771C127.947 138.746 128.802 137.72 129.313 136.866C131.879 133.106 132.732 129.005 132.219 124.39C132.048 121.998 131.023 118.922 130.851 116.87C130.51 113.795 130.851 111.573 129.484 112.255C126.58 114.474 125.04 119.604 124.87 122.85C124.701 126.269 125.211 133.959 125.04 135.497C124.53 138.23 124.702 138.402 123.332 141.649C122.819 142.841 121.623 144.212 121.453 144.723C120.941 145.919 122.137 145.919 123.673 145.578C125.895 145.064 127.603 144.21 129.482 142.674C129.482 142.674 130.679 141.649 129.996 141.136C129.825 141.139 127.775 141.652 127.092 141.311V141.311ZM94.9645 85.0846C96.1628 85.0846 96.1628 85.0846 97.1862 84.914C98.7242 84.914 101.971 85.5977 103.34 86.2814C104.876 86.9652 105.73 86.7946 106.242 86.6226C106.929 86.6226 106.929 86.6226 107.782 86.2814C109.32 85.2552 107.952 84.2303 107.782 84.2303C107.268 83.8892 102.484 82.3512 101.8 82.1806C99.5814 81.4969 99.2374 81.4969 98.8948 81.4969C96.3334 82.0101 95.3071 82.8644 94.9645 83.5481C94.6234 84.2303 94.9645 85.0846 94.9645 85.0846V85.0846ZM111.541 82.5218C110.857 82.3512 110.347 82.6923 110.177 83.0349C109.833 83.2055 110.003 83.3775 110.003 83.8892C110.177 84.4009 111.199 86.1109 111.713 86.2814C112.054 86.6226 112.397 86.6226 112.567 86.452C112.738 86.452 113.766 85.5977 113.592 85.0846C113.591 84.0598 112.223 82.6923 111.541 82.5218V82.5218ZM112.566 79.9575C112.395 80.4706 113.42 82.0086 114.107 81.666C114.617 81.4955 116.496 79.7855 116.839 79.2738C117.009 78.7606 117.353 78.0769 117.18 77.9064C116.326 77.3932 115.641 77.3932 115.129 77.5652C114.617 77.5667 113.078 78.7621 112.566 79.9575V79.9575ZM107.611 77.0521V74.4893C107.611 74.3187 107.611 73.8056 107.439 73.463C107.268 73.2924 106.758 72.6087 106.758 72.4382C106.585 72.2676 106.414 72.2676 106.414 72.2676C106.072 72.097 105.901 72.2676 105.56 72.4382C105.219 72.6087 104.706 73.2924 104.706 73.2924C104.535 73.2924 104.364 73.6336 104.364 73.9761C104.535 74.3173 104.706 75.5141 105.391 76.1964C105.732 76.3684 105.902 76.539 106.073 76.7095C106.758 77.0521 107.098 77.0521 107.611 77.0521V77.0521ZM179.039 57.5686C179.555 58.0832 181.091 58.7669 181.605 58.4243C182.118 58.2537 181.946 56.2026 181.775 55.5189C181.605 53.9809 180.75 51.7592 179.38 49.8801C178.867 49.1964 175.963 47.1453 174.938 46.9747C171.692 46.9747 172.888 49.3684 172.888 49.3684C172.888 49.3684 175.794 54.4941 179.039 57.5686ZM143.155 38.7717C143.668 38.4306 144.693 37.5763 144.18 36.3794C143.667 36.2089 143.496 36.0369 142.813 36.0369C142.129 35.8663 141.273 36.7206 141.273 37.5748C141.275 38.26 141.786 39.2848 143.155 38.7717ZM131.364 74.8319C129.484 73.9776 129.313 73.807 128.119 72.0985C127.775 71.5839 123.845 66.4583 122.136 66.1157C121.113 65.9451 120.943 66.1157 120.427 65.432C118.718 62.6986 118.547 60.3049 115.471 58.5963C115.13 58.4258 114.447 57.5686 114.96 57.0583C115.13 56.8878 115.813 56.8878 116.327 57.0583C119.061 57.7421 121.285 58.9389 122.992 61.1591C124.017 62.6971 124.189 63.8925 125.384 64.9203C126.068 65.2614 126.411 65.604 126.922 65.9451C127.777 66.4583 128.802 68.1668 129.315 69.0211C130.169 70.7296 130.853 72.2676 131.71 74.3187C131.879 74.8319 131.708 75.0024 131.364 74.8319V74.8319ZM104.022 59.7932C103.51 59.7932 103.169 59.7932 102.654 59.4521C102.654 59.4521 102.484 59.28 102.484 58.5978C102.484 57.9155 103.169 57.4024 103.51 57.2304C103.679 57.2304 104.192 56.7172 104.704 56.7172H106.413C106.583 56.7172 106.413 57.0598 106.241 57.2304C106.241 57.4009 104.703 59.28 104.703 59.28C104.706 59.4506 104.363 59.7932 104.022 59.7932V59.7932ZM156.825 46.1205C155.457 45.9499 151.014 43.3871 150.845 42.1902C150.672 41.8491 150.501 40.6523 150.845 39.798C150.845 38.9437 153.749 36.2103 155.799 35.6972C156.656 35.5266 156.656 36.0383 156.656 36.2103C156.656 37.0646 156.14 38.6026 156.312 39.6274C156.312 40.6537 157.507 42.8754 158.532 42.8754C158.873 42.8754 159.216 42.7048 159.557 42.5328C160.752 41.8491 160.924 41.508 161.78 40.3126C162.121 39.2863 162.293 39.1157 162.634 38.2615C162.805 37.7483 163.318 37.9189 163.833 38.7731C164.343 39.6274 164.171 40.8243 163.833 41.8491C163.146 43.5577 162.292 44.4134 160.752 45.0971C159.898 45.6102 158.873 45.9514 158.532 45.9514C158.02 46.1205 157.166 46.291 156.825 46.1205V46.1205ZM139.737 146.094C140.079 146.264 141.275 146.777 143.155 148.83C144.009 149.684 147.254 153.101 148.451 153.272C149.135 153.272 149.989 154.467 149.989 154.467C149.989 154.467 149.819 155.321 148.451 155.663C147.768 155.833 144.18 156.004 144.352 160.107C144.693 163.695 148.623 163.695 149.135 163.525C153.409 163.011 153.409 162.329 155.288 160.621C156.313 159.596 156.826 160.45 156.826 160.45C156.826 160.45 158.194 161.988 159.73 164.208C159.901 164.379 160.926 165.407 159.389 166.774C158.022 168.141 156.488 169.337 156.143 169.678C155.629 169.848 154.947 170.703 154.093 169.507C152.898 167.799 149.819 165.236 146.063 168.14C142.473 171.044 142.986 176.684 148.964 178.735C155.288 180.958 162.124 179.419 164.857 177.197C164.857 177.197 166.053 176.684 166.907 174.464C167.761 172.411 167.932 170.019 167.423 168.824C167.079 168.14 166.395 166.945 166.395 166.945C166.395 166.945 165.541 165.749 166.225 165.065C167.253 163.87 169.471 162.159 169.471 162.159C169.471 162.159 171.524 160.791 172.549 162.329C173.403 163.87 174.431 165.749 174.431 165.749C174.431 165.749 174.941 166.603 173.915 168.141C173.118 169.488 172.263 170.799 171.352 172.07C171.352 172.07 170.495 174.123 171.181 175.831C171.522 176.686 171.694 177.54 172.89 179.589C173.915 180.788 175.623 181.985 178.527 182.155C182.118 182.326 185.535 179.589 186.047 179.078C186.388 178.562 189.124 173.952 183.654 172.757C181.775 172.583 180.75 172.927 180.064 172.757C180.064 172.757 178.017 170.875 177.846 169.337C177.673 167.799 178.527 167.458 178.527 167.458C178.527 167.458 180.236 165.576 181.605 165.408C182.8 165.237 182.972 165.408 183.825 166.262C184.509 167.117 185.875 168.312 185.875 168.312C187.754 169.85 190.49 167.971 189.462 165.749C188.267 163.526 188.095 163.526 187.583 162.5C192.028 161.132 196.47 157.033 199.718 154.98C199.38 155.835 188.437 179.247 188.095 180.101C187.754 181.129 186.899 184.375 187.754 185.912C188.267 187.107 188.611 188.819 187.24 190.527C186.386 191.723 183.653 202.659 183.653 203.684C183.823 204.368 183.823 204.879 184.678 205.051V207.958C184.337 208.642 182.628 210.692 181.431 210.521H97.8699C96.6745 210.692 94.794 208.642 94.6234 207.958V205.051C95.3071 204.881 95.4777 204.368 95.4777 203.684C95.6483 202.659 92.9149 191.723 92.0591 190.527C90.6917 188.819 91.0328 187.107 91.546 185.912C92.4032 184.374 91.546 181.129 91.0328 180.101C90.6917 179.247 79.5833 154.98 79.5833 154.98C80.6081 155.664 86.2469 160.45 91.8857 162.5C91.8857 162.5 90.5182 164.552 89.836 165.749C88.8126 167.969 91.5445 169.848 93.2545 168.312C93.2545 168.312 94.622 167.117 95.4762 166.262C96.332 165.408 96.5011 165.237 97.6979 165.408C99.0653 165.576 100.772 167.458 100.772 167.458C100.772 167.458 101.627 167.799 101.456 169.337C101.286 170.875 99.2359 172.757 99.2359 172.757C98.3816 172.927 97.5274 172.583 95.6482 172.757C90.18 173.952 92.9149 178.562 93.256 179.078C93.7691 179.591 97.0157 182.327 100.774 182.155C103.679 181.985 105.389 180.788 106.414 179.589C107.611 177.54 107.782 176.686 107.952 175.831C108.806 174.123 107.782 172.07 107.782 172.07C107.439 171.384 106.072 169.337 105.219 168.141C104.192 166.603 104.878 165.749 104.878 165.749C104.878 165.749 105.732 163.87 106.76 162.329C107.612 160.791 109.833 162.159 109.833 162.159C109.833 162.159 112.054 163.87 112.909 165.065C113.592 165.749 112.909 166.945 112.909 166.945C112.909 166.945 112.225 168.14 111.884 168.824C111.371 170.019 111.541 172.411 112.225 174.464C113.251 176.684 114.276 177.197 114.447 177.197C117.181 179.417 124.016 180.958 130.169 178.735C136.491 176.686 137.003 171.045 133.074 168.14C129.315 165.236 126.411 167.799 125.212 169.507C124.188 170.703 123.504 169.848 123.163 169.678C122.822 169.337 121.285 168.14 119.915 166.774C118.377 165.407 119.402 164.379 119.574 164.208C121.115 161.988 122.479 160.45 122.479 160.45C122.479 160.45 122.992 159.596 123.847 160.621C125.898 162.329 125.898 163.013 130.169 163.525C130.682 163.695 134.612 163.695 134.783 160.107C135.127 156.005 131.538 155.833 130.853 155.663C129.485 155.321 129.144 154.467 129.144 154.467C129.144 154.467 130.17 153.272 130.682 153.272C131.88 153.101 135.299 149.684 136.15 148.83C138.199 146.777 139.395 146.264 139.737 146.094V146.094ZM179.726 203.856C179.893 203.685 179.726 201.977 179.726 201.977C179.555 201.293 178.698 199.414 178.527 198.389C178.186 197.532 178.527 193.433 179.726 192.406C181.946 191.382 182.288 193.261 181.946 190.527H97.3568C97.1862 193.261 97.3568 191.382 99.752 192.406C100.774 193.431 101.116 197.532 100.946 198.389C100.603 199.414 99.752 201.293 99.752 201.977C99.752 201.977 99.4079 203.685 99.5799 203.856C99.5814 204.027 179.726 204.027 179.726 203.856V203.856ZM96.6731 197.706H97.6994V195.653H96.6731V197.706ZM181.093 197.706H182.118V195.653H181.093V197.706ZM95.3071 188.645H183.656C183.997 188.645 184.169 188.475 184.169 188.304V185.912C184.169 185.738 183.998 185.568 183.656 185.568H95.3071C94.9645 185.568 94.9645 185.738 94.9645 185.912V188.304C94.9645 188.475 94.9645 188.645 95.3071 188.645ZM99.2374 207.958H180.065C180.236 207.958 180.409 207.788 180.409 207.617V206.25C180.409 206.079 180.236 205.909 180.065 205.909H99.2374C99.1489 205.915 99.0656 205.953 99.003 206.015C98.9403 206.078 98.9024 206.161 98.8962 206.25V207.617C98.8948 207.788 99.0668 207.958 99.2374 207.958V207.958ZM159.899 201.806C157.679 201.806 156.141 200.098 156.141 198.048V196.337C156.141 194.116 157.679 192.576 159.899 192.576H167.932C169.984 192.576 171.693 194.287 171.693 196.337V198.048C171.693 200.098 169.984 201.806 167.932 201.806H159.899ZM163.835 199.924C165.882 199.924 167.591 198.732 167.591 197.194C167.591 195.653 165.882 194.458 163.835 194.458C161.783 194.458 160.074 195.653 160.074 197.194C160.074 198.73 161.781 199.924 163.835 199.924ZM111.712 201.806C109.661 201.806 107.951 200.098 107.951 198.048V196.166C107.951 194.116 109.659 192.408 111.712 192.408H119.743C121.794 192.408 123.502 194.116 123.502 196.166V198.048C123.502 200.098 121.794 201.806 119.743 201.806H111.712ZM115.813 199.752C117.864 199.752 119.402 198.557 119.402 197.019C119.402 195.652 117.864 194.286 115.813 194.286C113.764 194.286 112.054 195.653 112.054 197.019C112.054 198.557 113.764 199.752 115.813 199.752ZM136.49 201.806C134.268 201.806 132.73 200.098 132.73 198.048V196.166C132.73 194.116 134.268 192.408 136.49 192.408H144.35C145.345 192.417 146.295 192.815 146.998 193.518C147.701 194.221 148.1 195.172 148.109 196.166V198.048C148.1 199.042 147.701 199.993 146.998 200.696C146.295 201.399 145.345 201.798 144.35 201.806H136.49ZM140.42 199.752C142.471 199.752 144.009 198.557 144.009 197.019C144.009 195.652 142.471 194.286 140.42 194.286C138.369 194.286 136.661 195.653 136.661 197.019C136.661 198.557 138.369 199.752 140.42 199.752ZM104.706 198.901C104.548 198.905 104.391 198.876 104.244 198.818C104.097 198.759 103.964 198.671 103.852 198.559C103.741 198.447 103.653 198.314 103.594 198.167C103.536 198.021 103.508 197.864 103.512 197.706C103.507 197.547 103.535 197.39 103.593 197.243C103.652 197.096 103.74 196.962 103.851 196.85C103.963 196.738 104.096 196.65 104.243 196.591C104.39 196.532 104.547 196.503 104.706 196.507C105.389 196.507 105.901 197.02 105.901 197.706C105.905 197.864 105.877 198.021 105.818 198.168C105.759 198.315 105.672 198.448 105.56 198.56C105.448 198.672 105.315 198.759 105.168 198.818C105.021 198.877 104.864 198.905 104.706 198.901V198.901ZM128.119 198.901C127.961 198.905 127.804 198.877 127.657 198.818C127.51 198.76 127.376 198.672 127.264 198.56C127.152 198.448 127.064 198.315 127.005 198.168C126.946 198.021 126.917 197.864 126.921 197.706C126.921 197.019 127.434 196.507 128.119 196.507C128.8 196.507 129.313 197.02 129.313 197.706C129.317 197.864 129.289 198.021 129.231 198.167C129.172 198.314 129.084 198.447 128.973 198.559C128.861 198.671 128.728 198.759 128.581 198.818C128.434 198.876 128.277 198.905 128.119 198.901V198.901ZM175.11 198.901C174.952 198.905 174.795 198.876 174.648 198.817C174.502 198.758 174.369 198.671 174.257 198.559C174.145 198.447 174.057 198.314 173.998 198.167C173.94 198.021 173.911 197.864 173.915 197.706C173.915 197.019 174.431 196.507 175.11 196.507C175.794 196.507 176.306 197.02 176.306 197.706C176.31 197.864 176.281 198.021 176.223 198.168C176.164 198.315 176.076 198.448 175.964 198.56C175.852 198.672 175.719 198.759 175.572 198.818C175.425 198.877 175.268 198.905 175.11 198.901V198.901ZM152.212 198.901C152.054 198.905 151.897 198.877 151.75 198.818C151.603 198.76 151.469 198.672 151.357 198.56C151.245 198.448 151.157 198.315 151.098 198.168C151.039 198.021 151.01 197.864 151.014 197.706C151.014 197.019 151.53 196.507 152.212 196.507C152.895 196.507 153.408 197.02 153.408 197.706C153.412 197.864 153.384 198.021 153.325 198.168C153.266 198.315 153.178 198.448 153.067 198.56C152.955 198.672 152.821 198.759 152.675 198.818C152.528 198.877 152.37 198.905 152.212 198.901V198.901Z" fill="#6B7379"/>
</svg>
